<svg width="224" height="24" viewBox="0 0 224 24" fill="none" xmlns="http://www.w3.org/2000/svg">
<path d="M11 4.00023H6.8C5.11984 4.00023 4.27976 4.00023 3.63803 4.32721C3.07354 4.61483 2.6146 5.07377 2.32698 5.63826C2 6.27999 2 7.12007 2 8.80023V17.2002C2 18.8804 2 19.7205 2.32698 20.3622C2.6146 20.9267 3.07354 21.3856 3.63803 21.6732C4.27976 22.0002 5.11984 22.0002 6.8 22.0002H15.2C16.8802 22.0002 17.7202 22.0002 18.362 21.6732C18.9265 21.3856 19.3854 20.9267 19.673 20.3622C20 19.7205 20 18.8804 20 17.2002V13.0002M7.99997 16.0002H9.67452C10.1637 16.0002 10.4083 16.0002 10.6385 15.945C10.8425 15.896 11.0376 15.8152 11.2166 15.7055C11.4184 15.5818 11.5914 15.4089 11.9373 15.063L21.5 5.50023C22.3284 4.6718 22.3284 3.32865 21.5 2.50023C20.6716 1.6718 19.3284 1.6718 18.5 2.50022L8.93723 12.063C8.59133 12.4089 8.41838 12.5818 8.29469 12.7837C8.18504 12.9626 8.10423 13.1577 8.05523 13.3618C7.99997 13.5919 7.99997 13.8365 7.99997 14.3257V16.0002Z" stroke="#777777" stroke-width="2" stroke-linecap="round" stroke-linejoin="round"/>
<path d="M56 8V5.2C56 4.0799 56 3.51984 55.782 3.09202C55.5903 2.71569 55.2843 2.40973 54.908 2.21799C54.4802 2 53.9201 2 52.8 2H45.2C44.0799 2 43.5198 2 43.092 2.21799C42.7157 2.40973 42.4097 2.71569 42.218 3.09202C42 3.51984 42 4.0799 42 5.2V12.8C42 13.9201 42 14.4802 42.218 14.908C42.4097 15.2843 42.7157 15.5903 43.092 15.782C43.5198 16 44.0799 16 45.2 16H48M51.2 22H58.8C59.9201 22 60.4802 22 60.908 21.782C61.2843 21.5903 61.5903 21.2843 61.782 20.908C62 20.4802 62 19.9201 62 18.8V11.2C62 10.0799 62 9.51984 61.782 9.09202C61.5903 8.71569 61.2843 8.40973 60.908 8.21799C60.4802 8 59.9201 8 58.8 8H51.2C50.0799 8 49.5198 8 49.092 8.21799C48.7157 8.40973 48.4097 8.71569 48.218 9.09202C48 9.51984 48 10.0799 48 11.2V18.8C48 19.9201 48 20.4802 48.218 20.908C48.4097 21.2843 48.7157 21.5903 49.092 21.782C49.5198 22 50.0799 22 51.2 22Z" stroke="#777777" stroke-width="2" stroke-linecap="round" stroke-linejoin="round"/>
<path d="M87 3V6.4C87 6.96005 87 7.24008 87.109 7.45399C87.2049 7.64215 87.3578 7.79513 87.546 7.89101C87.7599 8 88.0399 8 88.6 8H95.4C95.9601 8 96.2401 8 96.454 7.89101C96.6422 7.79513 96.7951 7.64215 96.891 7.45399C97 7.24008 97 6.96005 97 6.4V4M97 21V14.6C97 14.0399 97 13.7599 96.891 13.546C96.7951 13.3578 96.6422 13.2049 96.454 13.109C96.2401 13 95.9601 13 95.4 13H88.6C88.0399 13 87.7599 13 87.546 13.109C87.3578 13.2049 87.2049 13.3578 87.109 13.546C87 13.7599 87 14.0399 87 14.6V21M101 9.32548V16.2C101 17.8802 101 18.7202 100.673 19.362C100.385 19.9265 99.9265 20.3854 99.362 20.673C98.7202 21 97.8802 21 96.2 21H87.8C86.1198 21 85.2798 21 84.638 20.673C84.0735 20.3854 83.6146 19.9265 83.327 19.362C83 18.7202 83 17.8802 83 16.2V7.8C83 6.11984 83 5.27976 83.327 4.63803C83.6146 4.07354 84.0735 3.6146 84.638 3.32698C85.2798 3 86.1198 3 87.8 3H94.6745C95.1637 3 95.4083 3 95.6385 3.05526C95.8425 3.10425 96.0376 3.18506 96.2166 3.29472C96.4184 3.4184 96.5914 3.59135 96.9373 3.93726L100.063 7.06274C100.409 7.40865 100.582 7.5816 100.705 7.78343C100.815 7.96237 100.896 8.15746 100.945 8.36154C101 8.59171 101 8.8363 101 9.32548Z" stroke="#777777" stroke-width="2" stroke-linecap="round" stroke-linejoin="round"/>
<path d="M139.059 18.6704L136.919 14.4004L134.779 18.6704M135.169 17.9104H138.689" stroke="#777777" stroke-width="1.5" stroke-linecap="round" stroke-linejoin="round"/>
<path d="M129.01 5.85H124.95M126.97 5.17V5.85M136.92 22C136.253 21.9999 135.592 21.8683 134.976 21.6129C134.359 21.3574 133.799 20.983 133.327 20.5111C132.856 20.0392 132.482 19.479 132.226 18.8625C131.971 18.246 131.84 17.5852 131.84 16.918C131.84 16.2508 131.972 15.5901 132.227 14.9737C132.483 14.3573 132.857 13.7972 133.329 13.3255C133.801 12.8538 134.361 12.4796 134.978 12.2244C135.594 11.9692 136.255 11.8379 136.922 11.838C138.27 11.8383 139.562 12.3738 140.515 13.3269C141.467 14.28 142.002 15.5724 142.002 16.92C142.002 18.2676 141.466 19.5598 140.513 20.5125C139.56 21.4652 138.268 22.0003 136.92 22ZM125.02 2H128.94C131.01 2 132.01 3 131.96 5.02V8.94C132.01 11.01 131.01 12.01 128.94 11.96H125.02C123 12 122 11 122 8.93V5.01C122 3 123 2 125.02 2Z" stroke="#777777" stroke-width="1.5" stroke-linecap="round" stroke-linejoin="round"/>
<path d="M127.989 5.83984C127.989 7.58984 126.619 9.00984 124.939 9.00984" stroke="#777777" stroke-width="1.5" stroke-linecap="round" stroke-linejoin="round"/>
<path d="M129.01 9.01C128.28 9.01 127.62 8.62 127.16 8M122 15C122 18.87 125.13 22 129 22L127.95 20.25M142 9C142 5.13 138.87 2 135 2L136.05 3.75" stroke="#777777" stroke-width="1.5" stroke-linecap="round" stroke-linejoin="round"/>
<path d="M176 2H168C164 2 162 4 162 8V21C162 21.55 162.45 22 163 22H176C180 22 182 20 182 16V8C182 4 180 2 176 2Z" stroke="#777777" stroke-width="1.5" stroke-linecap="round" stroke-linejoin="round"/>
<path d="M172.911 7.84015L167.721 13.0302C167.521 13.2302 167.331 13.6202 167.291 13.9002L167.011 15.8802C166.911 16.6002 167.411 17.1002 168.131 17.0002L170.111 16.7202C170.391 16.6802 170.781 16.4902 170.981 16.2902L176.171 11.1002C177.061 10.2102 177.491 9.17015 176.171 7.85015C174.851 6.52015 173.811 6.94015 172.911 7.84015Z" stroke="#777777" stroke-width="1.5" stroke-miterlimit="10" stroke-linecap="round" stroke-linejoin="round"/>
<path d="M172.17 8.58008C172.387 9.35526 172.8 10.0615 173.369 10.6307C173.939 11.1999 174.645 11.613 175.42 11.8301" stroke="#777777" stroke-width="1.5" stroke-miterlimit="10" stroke-linecap="round" stroke-linejoin="round"/>
<path d="M220.791 12.6082C221.035 12.3989 221.158 12.2943 221.202 12.1698C221.242 12.0605 221.242 11.941 221.202 11.8317C221.158 11.7072 221.035 11.6026 220.791 11.3934L212.321 4.13275C211.9 3.77256 211.69 3.59246 211.512 3.58804C211.358 3.58421 211.21 3.65213 211.112 3.77201C211 3.90995 211 4.18668 211 4.74016V9.03541C208.865 9.40887 206.912 10.4905 205.46 12.1146C203.877 13.8853 203.001 16.1767 203 18.5517V19.1637C204.049 17.8996 205.36 16.8773 206.841 16.1667C208.147 15.5402 209.558 15.1691 211 15.0713V19.2614C211 19.8149 211 20.0916 211.112 20.2296C211.21 20.3494 211.358 20.4174 211.512 20.4135C211.69 20.4091 211.9 20.229 212.321 19.8688L220.791 12.6082Z" stroke="#777777" stroke-width="2" stroke-linecap="round" stroke-linejoin="round"/>
</svg>
