<svg width="24" height="25" viewBox="0 0 24 25" fill="none" xmlns="http://www.w3.org/2000/svg">
<path d="M11.9998 0.425781C5.38302 0.425781 0 5.80927 0 12.4255C0 19.0423 5.38349 24.4258 11.9998 24.4258C18.6165 24.4258 24 19.0423 24 12.4255C24 5.8088 18.6165 0.425781 11.9998 0.425781ZM11.9998 22.7595C6.30146 22.7595 1.66624 18.1237 1.66624 12.4255C1.66624 6.72771 6.30174 2.09202 11.9998 2.09202C17.6978 2.09202 22.3338 6.7279 22.3338 12.4255C22.3338 18.1238 17.6981 22.7595 11.9998 22.7595Z" fill="#333333"/>
<path d="M17.1092 6.54883C16.3351 6.54883 15.7079 7.17642 15.7079 7.95064C15.7079 8.41207 15.9318 8.82016 16.276 9.0757V11.8267H12.8878L12.8876 9.0757C13.2318 8.82034 13.4558 8.41209 13.4558 7.95064C13.4558 7.17642 12.8282 6.54883 12.0545 6.54883C11.2804 6.54883 10.6529 7.17642 10.6529 7.95064C10.6529 8.41207 10.877 8.82016 11.221 9.0757V11.8267H7.83277L7.8324 9.0757C8.17677 8.82034 8.40058 8.41209 8.40058 7.95064C8.40058 7.17642 7.77317 6.54883 6.99928 6.54883C6.22525 6.54883 5.59766 7.17642 5.59766 7.95064C5.59766 8.41207 5.82218 8.82016 6.16597 9.0757V16.2436C5.8218 16.4993 5.59766 16.9072 5.59766 17.3688C5.59766 18.1431 6.22525 18.7705 6.99928 18.7705C7.77332 18.7705 8.40058 18.1431 8.40058 17.3688C8.40058 16.9072 8.1766 16.4993 7.8324 16.2436V13.4928H11.2207V16.2436C10.8765 16.4993 10.6525 16.9072 10.6525 17.3688C10.6525 18.1431 11.2801 18.7705 12.0541 18.7705C12.8278 18.7705 13.4554 18.1431 13.4554 17.3688C13.4554 16.9072 13.2314 16.4993 12.8872 16.2436L12.8876 13.4928H17.109C17.5691 13.4928 17.9421 13.1198 17.9421 12.6597L17.9419 9.0757C18.2861 8.82034 18.5102 8.41209 18.5102 7.95064C18.5108 7.17642 17.8832 6.54883 17.1092 6.54883Z" fill="#333333"/>
</svg>
