<svg width="25" height="25" viewBox="0 0 25 25" fill="none" xmlns="http://www.w3.org/2000/svg">
<path d="M8.5 5.7793C8.09 5.7793 7.75 5.4393 7.75 5.0293V2.0293C7.75 1.6193 8.09 1.2793 8.5 1.2793C8.91 1.2793 9.25 1.6193 9.25 2.0293V5.0293C9.25 5.4393 8.91 5.7793 8.5 5.7793ZM16.5 5.7793C16.09 5.7793 15.75 5.4393 15.75 5.0293V2.0293C15.75 1.6193 16.09 1.2793 16.5 1.2793C16.91 1.2793 17.25 1.6193 17.25 2.0293V5.0293C17.25 5.4393 16.91 5.7793 16.5 5.7793ZM21 9.8693H4C3.59 9.8693 3.25 9.5293 3.25 9.1193C3.25 8.7093 3.59 8.3693 4 8.3693H21C21.41 8.3693 21.75 8.7093 21.75 9.1193C21.75 9.5293 21.41 9.8693 21 9.8693Z" fill="black"/>
<path d="M16.5 22.7793H8.5C4.85 22.7793 2.75 20.6793 2.75 17.0293V8.5293C2.75 4.8793 4.85 2.7793 8.5 2.7793H16.5C20.15 2.7793 22.25 4.8793 22.25 8.5293V17.0293C22.25 20.6793 20.15 22.7793 16.5 22.7793ZM8.5 4.2793C5.64 4.2793 4.25 5.6693 4.25 8.5293V17.0293C4.25 19.8893 5.64 21.2793 8.5 21.2793H16.5C19.36 21.2793 20.75 19.8893 20.75 17.0293V8.5293C20.75 5.6693 19.36 4.2793 16.5 4.2793H8.5Z" fill="black"/>
<path d="M9 14.5293C8.87 14.5293 8.74 14.4993 8.62 14.4493C8.5 14.3993 8.39 14.3293 8.29 14.2393C8.2 14.1393 8.13 14.0293 8.08 13.9093C8.02863 13.7891 8.00145 13.66 8 13.5293C8 13.2693 8.11 13.0093 8.29 12.8193C8.39 12.7293 8.5 12.6593 8.62 12.6093C8.8 12.5293 9 12.5093 9.2 12.5493C9.26 12.5593 9.32 12.5793 9.38 12.6093C9.44 12.6293 9.5 12.6593 9.56 12.6993L9.71 12.8193C9.75 12.8693 9.8 12.9193 9.83 12.9693C9.87 13.0293 9.9 13.0893 9.92 13.1493C9.95 13.2093 9.97 13.2693 9.98 13.3293C9.99 13.3993 10 13.4593 10 13.5293C10 13.7893 9.89 14.0493 9.71 14.2393C9.52 14.4193 9.26 14.5293 9 14.5293ZM12.5 14.5283C12.24 14.5283 11.98 14.4183 11.79 14.2383L11.67 14.0883C11.6321 14.0326 11.6019 13.972 11.58 13.9083C11.5511 13.8516 11.5309 13.791 11.52 13.7283C11.51 13.6583 11.5 13.5983 11.5 13.5283C11.5 13.3983 11.53 13.2683 11.58 13.1483C11.63 13.0283 11.7 12.9183 11.79 12.8183C12.07 12.5383 12.52 12.4483 12.88 12.6083C13.01 12.6583 13.11 12.7283 13.21 12.8183C13.39 13.0083 13.5 13.2683 13.5 13.5283C13.5 13.5983 13.49 13.6583 13.48 13.7283C13.47 13.7883 13.45 13.8483 13.42 13.9083C13.4 13.9683 13.37 14.0283 13.33 14.0883L13.21 14.2383C13.11 14.3283 13.01 14.3983 12.88 14.4483C12.76 14.4983 12.63 14.5283 12.5 14.5283ZM9 18.0283C8.87 18.0283 8.74 17.9983 8.62 17.9483C8.5 17.8983 8.39 17.8283 8.29 17.7383C8.2 17.6383 8.13 17.5383 8.08 17.4083C8.02863 17.2881 8.00145 17.159 8 17.0283C8 16.7683 8.11 16.5083 8.29 16.3183C8.39 16.2283 8.5 16.1583 8.62 16.1083C8.99 15.9483 9.43 16.0383 9.71 16.3183C9.75 16.3683 9.8 16.4183 9.83 16.4683C9.87 16.5283 9.9 16.5883 9.92 16.6483C9.95 16.7083 9.97 16.7683 9.98 16.8383C9.99 16.8983 10 16.9683 10 17.0283C10 17.2883 9.89 17.5483 9.71 17.7383C9.52 17.9183 9.26 18.0283 9 18.0283Z" fill="black"/>
</svg>
