<svg width="18" height="17" viewBox="0 0 18 17" fill="none" xmlns="http://www.w3.org/2000/svg">
<path d="M15.92 1.43578C15.72 0.845782 15.16 0.425781 14.5 0.425781H3.5C2.84 0.425781 2.29 0.845782 2.08 1.43578L0 7.42578V15.4258C0 15.9758 0.45 16.4258 1 16.4258H2C2.55 16.4258 3 15.9758 3 15.4258V14.4258H15V15.4258C15 15.9758 15.45 16.4258 16 16.4258H17C17.55 16.4258 18 15.9758 18 15.4258V7.42578L15.92 1.43578ZM3.85 2.42578H14.14L15.18 5.42578H2.81L3.85 2.42578ZM16 12.4258H2V7.76578L2.12 7.42578H15.89L16 7.76578V12.4258Z" fill="#333333"/>
<path d="M4.5 11.4258C5.32843 11.4258 6 10.7542 6 9.92578C6 9.09735 5.32843 8.42578 4.5 8.42578C3.67157 8.42578 3 9.09735 3 9.92578C3 10.7542 3.67157 11.4258 4.5 11.4258Z" fill="#333333"/>
<path d="M13.5 11.4258C14.3284 11.4258 15 10.7542 15 9.92578C15 9.09735 14.3284 8.42578 13.5 8.42578C12.6716 8.42578 12 9.09735 12 9.92578C12 10.7542 12.6716 11.4258 13.5 11.4258Z" fill="#333333"/>
</svg>
