<svg width="18" height="19" viewBox="0 0 18 19" fill="none" xmlns="http://www.w3.org/2000/svg">
<path d="M16.52 4.65578L16.53 4.64578L12.81 0.925781L11.75 1.98578L13.86 4.09578C12.92 4.45578 12.25 5.35578 12.25 6.42578C12.25 7.80578 13.37 8.92578 14.75 8.92578C15.11 8.92578 15.44 8.84578 15.75 8.71578V15.9258C15.75 16.4758 15.3 16.9258 14.75 16.9258C14.2 16.9258 13.75 16.4758 13.75 15.9258V11.4258C13.75 10.3258 12.85 9.42578 11.75 9.42578H10.75V2.42578C10.75 1.32578 9.85 0.425781 8.75 0.425781H2.75C1.65 0.425781 0.75 1.32578 0.75 2.42578V18.4258H10.75V10.9258H12.25V15.9258C12.25 17.3058 13.37 18.4258 14.75 18.4258C16.13 18.4258 17.25 17.3058 17.25 15.9258V6.42578C17.25 5.73578 16.97 5.10578 16.52 4.65578ZM8.75 16.4258H2.75V9.42578H8.75V16.4258ZM8.75 7.42578H2.75V2.42578H8.75V7.42578ZM14.75 7.42578C14.2 7.42578 13.75 6.97578 13.75 6.42578C13.75 5.87578 14.2 5.42578 14.75 5.42578C15.3 5.42578 15.75 5.87578 15.75 6.42578C15.75 6.97578 15.3 7.42578 14.75 7.42578Z" fill="#333333"/>
</svg>
