<svg width="20" height="21" viewBox="0 0 20 21" fill="none" xmlns="http://www.w3.org/2000/svg">
<path d="M10 20.4258C4.49 20.4258 0 15.9358 0 10.4258C0 4.91578 4.49 0.425781 10 0.425781C15.51 0.425781 20 4.46578 20 9.42578C20 12.7358 17.31 15.4258 14 15.4258H12.23C11.95 15.4258 11.73 15.6458 11.73 15.9258C11.73 16.0458 11.78 16.1558 11.86 16.2558C12.27 16.7258 12.5 17.3158 12.5 17.9258C12.5 19.3058 11.38 20.4258 10 20.4258ZM10 2.42578C5.59 2.42578 2 6.01578 2 10.4258C2 14.8358 5.59 18.4258 10 18.4258C10.28 18.4258 10.5 18.2058 10.5 17.9258C10.5 17.7658 10.42 17.6458 10.36 17.5758C9.95 17.1158 9.73 16.5258 9.73 15.9258C9.73 14.5458 10.85 13.4258 12.23 13.4258H14C16.21 13.4258 18 11.6358 18 9.42578C18 5.56578 14.41 2.42578 10 2.42578Z" fill="#333333"/>
<path d="M4.5 11.4258C5.32843 11.4258 6 10.7542 6 9.92578C6 9.09735 5.32843 8.42578 4.5 8.42578C3.67157 8.42578 3 9.09735 3 9.92578C3 10.7542 3.67157 11.4258 4.5 11.4258Z" fill="#333333"/>
<path d="M7.5 7.42578C8.32843 7.42578 9 6.75421 9 5.92578C9 5.09735 8.32843 4.42578 7.5 4.42578C6.67157 4.42578 6 5.09735 6 5.92578C6 6.75421 6.67157 7.42578 7.5 7.42578Z" fill="#333333"/>
<path d="M12.5 7.42578C13.3284 7.42578 14 6.75421 14 5.92578C14 5.09735 13.3284 4.42578 12.5 4.42578C11.6716 4.42578 11 5.09735 11 5.92578C11 6.75421 11.6716 7.42578 12.5 7.42578Z" fill="#333333"/>
<path d="M15.5 11.4258C16.3284 11.4258 17 10.7542 17 9.92578C17 9.09735 16.3284 8.42578 15.5 8.42578C14.6716 8.42578 14 9.09735 14 9.92578C14 10.7542 14.6716 11.4258 15.5 11.4258Z" fill="#333333"/>
</svg>
