<svg width="20" height="18" viewBox="0 0 20 18" fill="none" xmlns="http://www.w3.org/2000/svg">
<path d="M12.5 14.9258C12.5 16.5758 11.15 17.9258 9.5 17.9258C7.85 17.9258 6.5 16.5758 6.5 14.9258H8.5C8.5 15.4758 8.95 15.9258 9.5 15.9258C10.05 15.9258 10.5 15.4758 10.5 14.9258C10.5 14.3758 10.05 13.9258 9.5 13.9258H0V11.9258H9.5C11.15 11.9258 12.5 13.2758 12.5 14.9258ZM17 4.42578C17 2.49578 15.43 0.925781 13.5 0.925781C11.57 0.925781 10 2.49578 10 4.42578H12C12 3.59578 12.67 2.92578 13.5 2.92578C14.33 2.92578 15 3.59578 15 4.42578C15 5.25578 14.33 5.92578 13.5 5.92578H0V7.92578H13.5C15.43 7.92578 17 6.35578 17 4.42578ZM16.5 8.92578H0V10.9258H16.5C17.33 10.9258 18 11.5958 18 12.4258C18 13.2558 17.33 13.9258 16.5 13.9258V15.9258C18.43 15.9258 20 14.3558 20 12.4258C20 10.4958 18.43 8.92578 16.5 8.92578Z" fill="#333333"/>
</svg>
