<svg width="25" height="25" viewBox="0 0 25 25" fill="none" xmlns="http://www.w3.org/2000/svg">
<path d="M15.5 22.7793H9.5C4.07 22.7793 1.75 20.4593 1.75 15.0293V9.0293C1.75 3.5993 4.07 1.2793 9.5 1.2793H14.5C14.91 1.2793 15.25 1.6193 15.25 2.0293C15.25 2.4393 14.91 2.7793 14.5 2.7793H9.5C4.89 2.7793 3.25 4.4193 3.25 9.0293V15.0293C3.25 19.6393 4.89 21.2793 9.5 21.2793H15.5C20.11 21.2793 21.75 19.6393 21.75 15.0293V10.0293C21.75 9.6193 22.09 9.2793 22.5 9.2793C22.91 9.2793 23.25 9.6193 23.25 10.0293V15.0293C23.25 20.4593 20.93 22.7793 15.5 22.7793Z" fill="black"/>
<path d="M22.5 10.7759H18.5C15.08 10.7759 13.75 9.44587 13.75 6.02587V2.02587C13.75 1.72587 13.93 1.44587 14.21 1.33587C14.49 1.21587 14.81 1.28587 15.03 1.49587L23.03 9.49587C23.1343 9.60094 23.2052 9.73448 23.2338 9.87972C23.2624 10.025 23.2474 10.1754 23.1908 10.3122C23.1342 10.4489 23.0384 10.5659 22.9155 10.6484C22.7926 10.7309 22.648 10.7753 22.5 10.7759ZM15.25 3.83587V6.02587C15.25 8.60587 15.92 9.27587 18.5 9.27587H20.69L15.25 3.83587ZM13.5 13.7779H7.5C7.09 13.7779 6.75 13.4379 6.75 13.0279C6.75 12.6179 7.09 12.2779 7.5 12.2779H13.5C13.91 12.2779 14.25 12.6179 14.25 13.0279C14.25 13.4379 13.91 13.7779 13.5 13.7779ZM11.5 17.7779H7.5C7.09 17.7779 6.75 17.4379 6.75 17.0279C6.75 16.6179 7.09 16.2779 7.5 16.2779H11.5C11.91 16.2779 12.25 16.6179 12.25 17.0279C12.25 17.4379 11.91 17.7779 11.5 17.7779Z" fill="black"/>
</svg>
