<svg width="49" height="50" viewBox="0 0 49 50" fill="none" xmlns="http://www.w3.org/2000/svg">
<rect x="0.455078" y="0.453125" width="48.4091" height="49.0909" rx="24.2045" fill="#333333"/>
<path d="M36.9315 38.6287H12.386C11.8269 38.6287 11.3633 38.1651 11.3633 37.606C11.3633 37.0469 11.8269 36.5833 12.386 36.5833H36.9315C37.4906 36.5833 37.9542 37.0469 37.9542 37.606C37.9542 38.1651 37.4906 38.6287 36.9315 38.6287ZM34.2315 13.3769C31.586 10.7315 28.9951 10.6633 26.2815 13.3769L24.6315 15.0269C24.4951 15.1633 24.4406 15.3815 24.4951 15.5724C25.0166 17.362 25.981 18.9912 27.2991 20.3093C28.6172 21.6274 30.2464 22.5918 32.036 23.1133C32.1326 23.1449 32.2362 23.1489 32.335 23.1248C32.4338 23.1007 32.5239 23.0495 32.5951 22.9769L34.2315 21.3269C35.5815 19.9906 36.236 18.6951 36.236 17.386C36.2496 16.036 35.5951 14.7269 34.2315 13.3769ZM29.5815 24.3515C29.186 24.1606 28.8042 23.9697 28.436 23.7515C28.1369 23.5733 27.8457 23.3822 27.5633 23.1787C27.3315 23.0287 27.0587 22.8106 26.7996 22.5924C26.7162 22.5315 26.6386 22.4631 26.5678 22.3878C26.1178 22.006 25.6133 21.5151 25.1633 20.9697C25.1224 20.9424 25.0542 20.8469 24.9587 20.7242C24.8224 20.5606 24.5906 20.2878 24.386 19.9742C24.1916 19.7177 24.014 19.449 23.8542 19.1697C23.636 18.8015 23.4451 18.4333 23.2542 18.0515C23.2258 17.9904 23.1981 17.929 23.171 17.8674C22.9692 17.4133 22.376 17.281 22.0256 17.6315L14.2133 25.4437C14.036 25.621 13.8724 25.9619 13.8315 26.1937L13.0951 31.4165C12.9587 32.3437 13.2178 33.2165 13.7906 33.8028C14.2815 34.2801 14.9633 34.5392 15.6996 34.5392C15.8633 34.5392 16.0269 34.5256 16.1906 34.4983L21.4269 33.7619C21.6724 33.721 22.0133 33.5574 22.1769 33.3801L29.9796 25.5787C30.3342 25.2242 30.1992 24.6174 29.7396 24.4197C29.6869 24.3971 29.6341 24.3743 29.5815 24.3515Z" fill="#F2C94C"/>
</svg>
