<svg width="22" height="23" viewBox="0 0 22 23" fill="none" xmlns="http://www.w3.org/2000/svg">
<path d="M21 11.4258C21 16.9486 16.5228 21.4258 11 21.4258C5.47715 21.4258 1 16.9486 1 11.4258M21 11.4258C21 5.90293 16.5228 1.42578 11 1.42578M21 11.4258H18.5M1 11.4258C1 5.90293 5.47715 1.42578 11 1.42578M1 11.4258H3.5M11 1.42578V3.92578M18.0784 4.42578L12.4999 9.92578M18.0784 18.5042L17.8745 18.3003C17.1827 17.6085 16.8368 17.2626 16.4331 17.0152C16.0753 16.7959 15.6851 16.6343 15.2769 16.5363C14.8166 16.4258 14.3274 16.4258 13.349 16.4258L8.65096 16.4258C7.6726 16.4258 7.18342 16.4258 6.72307 16.5363C6.31493 16.6343 5.92475 16.796 5.56686 17.0153C5.1632 17.2626 4.8173 17.6085 4.12549 18.3003L3.92163 18.5042M3.92163 4.42578L5.65808 6.16223M13 11.4258C13 12.5304 12.1046 13.4258 11 13.4258C9.89543 13.4258 9 12.5304 9 11.4258C9 10.3212 9.89543 9.42578 11 9.42578C12.1046 9.42578 13 10.3212 13 11.4258Z" stroke="#333333" stroke-width="2" stroke-linecap="round" stroke-linejoin="round"/>
</svg>
