<svg width="25" height="25" viewBox="0 0 25 25" fill="none" xmlns="http://www.w3.org/2000/svg">
<path d="M12.4989 14.2007C10.3689 14.2007 8.62891 12.4707 8.62891 10.3307C8.62891 8.1907 10.3689 6.4707 12.4989 6.4707C14.6289 6.4707 16.3689 8.2007 16.3689 10.3407C16.3689 12.4807 14.6289 14.2007 12.4989 14.2007ZM12.4989 7.9707C11.1989 7.9707 10.1289 9.0307 10.1289 10.3407C10.1289 11.6507 11.1889 12.7107 12.4989 12.7107C13.8089 12.7107 14.8689 11.6507 14.8689 10.3407C14.8689 9.0307 13.7989 7.9707 12.4989 7.9707Z" fill="black"/>
<path d="M12.5016 22.7893C10.9611 22.7864 9.48127 22.188 8.37164 21.1193C5.42164 18.2793 2.16164 13.7493 3.39164 8.3593C4.50164 3.4693 8.77164 1.2793 12.5016 1.2793H12.5116C16.2416 1.2793 20.5116 3.4693 21.6216 8.3693C22.8416 13.7593 19.5816 18.2793 16.6316 21.1193C15.522 22.188 14.0422 22.7864 12.5016 22.7893ZM12.5016 2.7793C9.59164 2.7793 5.85164 4.3293 4.86164 8.6893C3.78164 13.3993 6.74164 17.4593 9.42164 20.0293C10.2477 20.8326 11.3544 21.282 12.5066 21.282C13.6589 21.282 14.7656 20.8326 15.5916 20.0293C18.2616 17.4593 21.2216 13.3993 20.1616 8.6893C19.1616 4.3293 15.4116 2.7793 12.5016 2.7793Z" fill="black"/>
</svg>
