<svg width="25" height="25" viewBox="0 0 25 25" fill="none" xmlns="http://www.w3.org/2000/svg">
<path d="M17.5 20.5293H7.5C4.5 20.5293 2.5 19.0293 2.5 15.5293V8.5293C2.5 5.0293 4.5 3.5293 7.5 3.5293H17.5C20.5 3.5293 22.5 5.0293 22.5 8.5293V15.5293C22.5 19.0293 20.5 20.5293 17.5 20.5293Z" stroke="#333333" stroke-width="1.5" stroke-miterlimit="10" stroke-linecap="round" stroke-linejoin="round"/>
<path d="M19.5 7.0293H16.5M8.5 17.0293H5.5M12.5 15.0293C13.2956 15.0293 14.0587 14.7132 14.6213 14.1506C15.1839 13.588 15.5 12.8249 15.5 12.0293C15.5 11.2336 15.1839 10.4706 14.6213 9.90798C14.0587 9.34537 13.2956 9.0293 12.5 9.0293C11.7044 9.0293 10.9413 9.34537 10.3787 9.90798C9.81607 10.4706 9.5 11.2336 9.5 12.0293C9.5 12.8249 9.81607 13.588 10.3787 14.1506C10.9413 14.7132 11.7044 15.0293 12.5 15.0293Z" stroke="#333333" stroke-width="1.5" stroke-miterlimit="10" stroke-linecap="round" stroke-linejoin="round"/>
</svg>
