<svg width="20" height="20" viewBox="0 0 20 20" fill="none" xmlns="http://www.w3.org/2000/svg">
<path d="M3.50607 4.56516C2.60607 3.92516 2.38607 2.68516 3.01607 1.77516C3.64607 0.875159 4.89607 0.655159 5.80607 1.28516C6.70607 1.92516 6.92607 3.16516 6.29607 4.07516C5.65607 4.97516 4.41607 5.19516 3.50607 4.56516ZM14.1561 18.9252C14.1561 18.3752 13.7061 17.9252 13.1561 17.9252H7.08607C5.60607 17.9252 4.34607 16.8452 4.12607 15.3852L2.31607 6.70516C2.22607 6.25516 1.82607 5.92516 1.35607 5.92516C0.736067 5.92516 0.276067 6.49516 0.396067 7.10516L2.14607 15.6852C2.52607 18.1252 4.62607 19.9252 7.09607 19.9252H13.1561C13.7061 19.9252 14.1561 19.4752 14.1561 18.9252ZM13.6961 13.9252H9.50607L8.47607 9.82516C9.75607 10.5452 11.1061 11.1052 12.5761 11.1252C13.1561 11.1352 13.6261 10.6352 13.6261 10.0552C13.6261 9.46516 13.1361 9.01516 12.5461 8.99516C11.2361 8.95516 9.91607 8.43516 8.93607 7.66516L7.29607 6.39516C7.06607 6.21516 6.80607 6.09516 6.53607 6.01516C6.21607 5.92516 5.87607 5.89516 5.54607 5.95516H5.52607C4.29607 6.17516 3.47607 7.34516 3.68607 8.56516L5.03607 14.4852C5.31607 15.9052 6.54607 16.9252 7.98607 16.9252H14.8361L17.9261 19.3452C18.3461 19.6752 18.9461 19.6352 19.3161 19.2652C19.7661 18.8152 19.7161 18.0852 19.2161 17.6952L14.9261 14.3452C14.5761 14.0752 14.1461 13.9252 13.6961 13.9252Z" fill="#333333"/>
</svg>
