<svg width="22" height="23" viewBox="0 0 22 23" fill="none" xmlns="http://www.w3.org/2000/svg">
<path d="M20.1877 0.425781H9.06435C8.60374 0.428192 8.16158 0.654225 7.83023 1.05657L0.574037 9.56349C0.208134 9.99446 0.000239397 10.5966 0 11.2271V16.658C0.00167848 18.1868 0.485798 19.6527 1.34615 20.7341C2.20626 21.8152 3.37255 22.4236 4.58894 22.4258H20.1884C20.6682 22.4258 21.1286 22.1865 21.4682 21.7606C21.8079 21.3345 21.999 20.7564 22 20.1534V2.69823C21.999 2.09517 21.8079 1.51709 21.4682 1.09097C21.1286 0.665126 20.6683 0.425828 20.1884 0.425828L20.1877 0.425781ZM20.6244 20.1539C20.6225 20.4552 20.4275 20.6982 20.1877 20.6982H4.58824C3.7358 20.6982 2.91841 20.2726 2.31562 19.5149C1.71281 18.7573 1.37424 17.7298 1.37424 16.6585V11.2276C1.37496 11.0757 1.42459 10.9307 1.51187 10.8256L8.76807 2.3009C8.84791 2.20596 8.95365 2.15322 9.06372 2.15413H20.1871C20.4269 2.15413 20.6218 2.39704 20.6237 2.69842L20.6244 20.1539ZM17.8743 4.74636H9.96807C9.79326 4.74576 9.62494 4.82924 9.49714 4.97963L3.94214 11.5208C3.7364 11.7628 3.66903 12.1383 3.77213 12.4677C3.87524 12.7974 4.12797 13.0147 4.40973 13.0159H17.8743C18.0565 13.0159 18.2316 12.9249 18.3603 12.7627C18.4893 12.6006 18.5617 12.3809 18.5617 12.1515V5.61039C18.5617 5.38103 18.4893 5.16133 18.3603 4.99919C18.2316 4.83734 18.0566 4.74636 17.8743 4.74636ZM17.1869 11.2875H6.1525L10.2501 6.47444H17.1871L17.1869 11.2875ZM17.1008 15.6081C17.1008 15.8374 17.0284 16.0571 16.8996 16.2193C16.7706 16.3811 16.5958 16.4721 16.4133 16.4721H14.4644C14.0846 16.4721 13.7767 16.0855 13.7767 15.6081C13.7767 15.131 14.0846 14.7441 14.4644 14.7441H16.4136H16.4134C16.5958 14.7441 16.7706 14.8351 16.8996 14.9972C17.0284 15.1593 17.1008 15.379 17.1008 15.6081Z" fill="#333333"/>
</svg>
