<svg width="18" height="19" viewBox="0 0 18 19" fill="none" xmlns="http://www.w3.org/2000/svg">
<path d="M11.17 2.42578L16 7.25578V16.4258H2V2.42578H11.17ZM11.17 0.425781H2C0.9 0.425781 0 1.32578 0 2.42578V16.4258C0 17.5258 0.9 18.4258 2 18.4258H16C17.1 18.4258 18 17.5258 18 16.4258V7.25578C18 6.72578 17.79 6.21578 17.41 5.84578L12.58 1.01578C12.21 0.635781 11.7 0.425781 11.17 0.425781ZM4 12.4258H14V14.4258H4V12.4258ZM4 8.42578H14V10.4258H4V8.42578ZM4 4.42578H11V6.42578H4V4.42578Z" fill="#333333"/>
</svg>
