<svg width="21" height="22" viewBox="0 0 21 22" fill="none" xmlns="http://www.w3.org/2000/svg">
<path d="M7.65856 10.6493H7.57856C7.51898 10.6393 7.45814 10.6393 7.39856 10.6493C4.49856 10.5593 2.30856 8.2793 2.30856 5.4693C2.30856 2.6093 4.63856 0.279297 7.49856 0.279297C10.3586 0.279297 12.6886 2.6093 12.6886 5.4693C12.6786 8.2793 10.4786 10.5593 7.68856 10.6493H7.65856ZM7.49856 1.7793C6.52072 1.78194 5.58369 2.17155 4.89225 2.86299C4.20082 3.55443 3.8112 4.49146 3.80856 5.4693C3.80856 7.4693 5.36856 9.0793 7.35856 9.1493C7.41856 9.1393 7.54856 9.1393 7.67856 9.1493C9.63856 9.0593 11.1786 7.4493 11.1886 5.4693C11.1859 4.49146 10.7963 3.55443 10.1049 2.86299C9.41343 2.17155 8.4764 1.78194 7.49856 1.7793ZM15.0376 10.7793C15.0076 10.7793 14.9776 10.7793 14.9476 10.7693C14.5376 10.8093 14.1176 10.5193 14.0776 10.1093C14.0376 9.6993 14.2876 9.3293 14.6976 9.2793C14.8176 9.2693 14.9476 9.2693 15.0576 9.2693C16.5176 9.1893 17.6576 7.9893 17.6576 6.5193C17.6576 4.9993 16.4276 3.7693 14.9076 3.7693C14.8095 3.77062 14.7122 3.75246 14.6213 3.71586C14.5304 3.67927 14.4476 3.62497 14.3778 3.55612C14.308 3.48728 14.2526 3.40525 14.2148 3.31481C14.177 3.22437 14.1576 3.12732 14.1576 3.0293C14.1576 2.6193 14.4976 2.2793 14.9076 2.2793C16.0339 2.28194 17.1134 2.73055 17.9098 3.52701C18.7063 4.32347 19.1549 5.40294 19.1576 6.5293C19.1576 8.8293 17.3576 10.6893 15.0676 10.7793H15.0376ZM7.67156 21.5793C5.71156 21.5793 3.74156 21.0793 2.25156 20.0793C0.861563 19.1593 0.101562 17.8993 0.101562 16.5293C0.101562 15.1593 0.861563 13.8893 2.25156 12.9593C5.25156 10.9693 10.1116 10.9693 13.0916 12.9593C14.4716 13.8793 15.2416 15.1393 15.2416 16.5093C15.2416 17.8793 14.4816 19.1493 13.0916 20.0793C11.5916 21.0793 9.63156 21.5793 7.67156 21.5793ZM3.08156 14.2193C2.12156 14.8593 1.60156 15.6793 1.60156 16.5393C1.60156 17.3893 2.13156 18.2093 3.08156 18.8393C5.57156 20.5093 9.77156 20.5093 12.2616 18.8393C13.2216 18.1993 13.7416 17.3793 13.7416 16.5193C13.7416 15.6693 13.2116 14.8493 12.2616 14.2193C9.77156 12.5593 5.57156 12.5593 3.08156 14.2193ZM16.8376 19.7793C16.4876 19.7793 16.1776 19.5393 16.1076 19.1793C16.0688 18.9846 16.1079 18.7825 16.2162 18.6161C16.3246 18.4498 16.4938 18.3325 16.6876 18.2893C17.3176 18.1593 17.8976 17.9093 18.3476 17.5593C18.9176 17.1293 19.2276 16.5893 19.2276 16.0193C19.2276 15.4493 18.9176 14.9093 18.3576 14.4893C17.9176 14.1493 17.3676 13.9093 16.7176 13.7593C16.523 13.7149 16.3539 13.5953 16.2471 13.4268C16.1403 13.2582 16.1045 13.0542 16.1476 12.8593C16.2376 12.4593 16.6376 12.1993 17.0476 12.2893C17.9076 12.4793 18.6576 12.8193 19.2676 13.2893C20.1976 13.9893 20.7276 14.9793 20.7276 16.0193C20.7276 17.0593 20.1876 18.0493 19.2576 18.7593C18.6376 19.2393 17.8576 19.5893 16.9976 19.7593C16.9376 19.7793 16.8876 19.7793 16.8376 19.7793Z" fill="black"/>
</svg>
