<svg width="18" height="23" viewBox="0 0 18 23" fill="none" xmlns="http://www.w3.org/2000/svg">
<path d="M14 4.52617C14.83 4.52617 15.5 3.85617 15.5 3.02617C15.5 2.02617 14 0.326172 14 0.326172C14 0.326172 12.5 2.02617 12.5 3.02617C12.5 3.85617 13.17 4.52617 14 4.52617ZM9 4.52617C9.83 4.52617 10.5 3.85617 10.5 3.02617C10.5 2.02617 9 0.326172 9 0.326172C9 0.326172 7.5 2.02617 7.5 3.02617C7.5 3.85617 8.17 4.52617 9 4.52617ZM4 4.52617C4.83 4.52617 5.5 3.85617 5.5 3.02617C5.5 2.02617 4 0.326172 4 0.326172C4 0.326172 2.5 2.02617 2.5 3.02617C2.5 3.85617 3.17 4.52617 4 4.52617ZM15.92 7.53617C15.72 6.94617 15.16 6.52617 14.5 6.52617H3.5C2.84 6.52617 2.29 6.94617 2.08 7.53617L0 13.5262V21.5262C0 22.0762 0.45 22.5262 1 22.5262H2C2.55 22.5262 3 22.0762 3 21.5262V20.5262H15V21.5262C15 22.0762 15.45 22.5262 16 22.5262H17C17.55 22.5262 18 22.0762 18 21.5262V13.5262L15.92 7.53617ZM3.85 8.52617H14.14L15.18 11.5262H2.81L3.85 8.52617ZM16 18.5262H2V13.8662L2.12 13.5262H15.89L16 13.8662V18.5262Z" fill="#333333"/>
<path d="M4.5 17.5262C5.32843 17.5262 6 16.8546 6 16.0262C6 15.1977 5.32843 14.5262 4.5 14.5262C3.67157 14.5262 3 15.1977 3 16.0262C3 16.8546 3.67157 17.5262 4.5 17.5262Z" fill="#333333"/>
<path d="M13.5 17.5262C14.3284 17.5262 15 16.8546 15 16.0262C15 15.1977 14.3284 14.5262 13.5 14.5262C12.6716 14.5262 12 15.1977 12 16.0262C12 16.8546 12.6716 17.5262 13.5 17.5262Z" fill="#333333"/>
</svg>
