<svg width="44" height="16" viewBox="0 0 44 16" fill="none" xmlns="http://www.w3.org/2000/svg">
<g clip-path="url(#clip0_2872_808)">
<path d="M0 0.462891H20.1004V15.5382H0V0.462891Z" fill="#012169"/>
<path d="M2.35551 0.462891L10.0188 6.14753L17.6507 0.462891H20.1004V2.41012L12.5627 8.03194L20.1004 13.6224V15.5382H17.5878L10.0502 9.91635L2.54396 15.5382H0V13.6538L7.50624 8.06335L0 2.47293V0.462891H2.35551Z" fill="white"/>
<path d="M13.3165 9.28822L20.1004 14.2819V15.5382L11.5891 9.28822H13.3165ZM7.53764 9.91635L7.72609 11.0156L1.69597 15.5382H0L7.53764 9.91635ZM20.1004 0.462891V0.557111L12.2801 6.4616L12.3429 5.0797L18.53 0.462891H20.1004ZM0 0.462891L7.50624 5.9905H5.62183L0 1.78198V0.462891Z" fill="#C8102E"/>
<path d="M7.56905 0.462891V15.5382H12.5941V0.462891H7.56905ZM0 5.48799V10.5131H20.1004V5.48799H0Z" fill="white"/>
<path d="M0 6.52441V9.53947H20.1004V6.52441H0ZM8.57407 0.462891V15.5382H11.5891V0.462891H8.57407Z" fill="#C8102E"/>
</g>
<g clip-path="url(#clip1_2872_808)">
<path fill-rule="evenodd" clip-rule="evenodd" d="M23.3984 0.464844H52.0415V1.62495H23.3984V0.464844ZM23.3984 2.78503H52.0415V3.94513H23.3984V2.78503ZM23.3984 5.10225H52.0415V6.26528H23.3984V5.10225ZM23.3984 7.42244H52.0415V8.58254H23.3984V7.42244ZM23.3984 9.74262H52.0415V10.9027H23.3984V9.74262ZM23.3984 12.0598H52.0415V13.22H23.3984V12.0598ZM23.3984 14.38H52.0415V15.5401H23.3984V14.38Z" fill="#BD3D44"/>
<path fill-rule="evenodd" clip-rule="evenodd" d="M23.3984 1.625H52.0415V2.78507H23.3984V1.625ZM23.3984 3.94515H52.0415V5.1023H23.3984V3.94515ZM23.3984 6.26241H52.0415V7.42249H23.3984V6.26241ZM23.3984 8.58259H52.0415V9.74267H23.3984V8.58259ZM23.3984 10.9028H52.0415V12.0628H23.3984V10.9028ZM23.3984 13.22H52.0415V14.3801H23.3984V13.22Z" fill="white"/>
<path fill-rule="evenodd" clip-rule="evenodd" d="M23.3984 0.464844H34.8551V8.58254H23.3984V0.464844Z" fill="#192F5D"/>
<path fill-rule="evenodd" clip-rule="evenodd" d="M24.3518 0.8125L24.4578 1.13338H24.7935L24.5226 1.33068L24.6256 1.65455L24.3518 1.45433L24.0809 1.6516L24.184 1.33068L23.9102 1.13338H24.2517L24.3518 0.8125ZM26.2627 0.8125L26.3658 1.13338H26.7044L26.4305 1.33068L26.5336 1.65455L26.2627 1.45433L25.9889 1.6516L26.0919 1.33068L25.821 1.13338H26.1567L26.2627 0.8125ZM28.1707 0.8125L28.2767 1.13342H28.6094L28.3385 1.33071L28.4415 1.65458L28.1677 1.45436L27.8968 1.65163L27.9999 1.33071L27.7261 1.13342H28.0647L28.1707 0.8125ZM30.0816 0.8125L30.1846 1.13342H30.5232L30.2494 1.33071L30.3554 1.65458L30.0816 1.45436L29.8078 1.65163L29.9138 1.33071L29.6399 1.13342H29.9756L30.0816 0.8125ZM31.9896 0.8125L32.0956 1.13342H32.4312L32.1603 1.33071L32.2634 1.65458L31.9895 1.45436L31.7187 1.65163L31.8217 1.33071L31.5508 1.13342H31.8865L31.9896 0.8125ZM33.9005 0.8125L34.0035 1.13342H34.3421L34.0683 1.33071L34.1743 1.65458L33.9005 1.45436L33.6266 1.65163L33.7326 1.33071L33.4588 1.13342H33.7974L33.9005 0.8125ZM25.3087 1.62509L25.4118 1.94607H25.7504L25.4765 2.1433L25.5767 2.46428L25.3117 2.26698L25.0379 2.46425L25.135 2.14333L24.87 1.94604H25.2057L25.3087 1.62509ZM27.2167 1.62509L27.3227 1.94607H27.6583L27.3845 2.1433L27.4905 2.46428L27.2167 2.26698L26.9429 2.46425L27.0489 2.14333L26.775 1.94604H27.1136L27.2167 1.62509ZM29.1276 1.62509L29.2306 1.94607H29.5693L29.2954 2.1433L29.3985 2.46428L29.1276 2.26698L28.8538 2.46425L28.9568 2.14337L28.6859 1.94607H29.0216L29.1276 1.62509ZM31.0356 1.62509L31.1416 1.94607H31.4772L31.2034 2.1433L31.3094 2.46428L31.0356 2.26698L30.7647 2.46425L30.8677 2.14333L30.5939 1.94604H30.9355L31.0356 1.62509ZM32.9465 1.62509L33.0495 1.94607H33.3881L33.1143 2.1433L33.2174 2.46428L32.9465 2.26698L32.6726 2.46425L32.7757 2.14333L32.5048 1.94604H32.8405L32.9465 1.62509ZM24.3518 2.43488L24.4578 2.7617H24.7935L24.5226 2.95897L24.6256 3.27992L24.3518 3.0797L24.0809 3.27992L24.184 2.95602L23.9102 2.75878H24.2517L24.3518 2.43488ZM26.2627 2.43488L26.3658 2.75869H26.7044L26.4305 2.95595L26.5336 3.27693L26.2627 3.07668L25.9889 3.2769L26.0919 2.95303L25.821 2.75577H26.1567L26.2627 2.43488ZM28.1707 2.43488L28.2767 2.75875H28.6094L28.3385 2.95602L28.4415 3.277L28.1677 3.07675L27.8968 3.27696L27.9999 2.9531L27.7261 2.75583H28.0647L28.1707 2.43488ZM30.0816 2.43488L30.1846 2.75875H30.5232L30.2494 2.95602L30.3554 3.277L30.0816 3.07675L29.8078 3.27696L29.9138 2.9531L29.6399 2.75583H29.9756L30.0816 2.43488ZM31.9896 2.43488L32.0956 2.75875H32.4312L32.1603 2.95599L32.2634 3.27696L31.9895 3.07671L31.7187 3.27693L31.8217 2.95307L31.5508 2.7558H31.8865L31.9896 2.43488ZM33.9005 2.43488L34.0035 2.75875H34.3421L34.0683 2.95602L34.1743 3.277L33.9005 3.07675L33.6266 3.27696L33.7326 2.9531L33.4588 2.75583H33.7974L33.9005 2.43488ZM25.3087 3.2475L25.4118 3.56845H25.7504L25.4765 3.76569L25.5796 4.08959L25.3087 3.88937L25.0349 4.08663L25.1379 3.76572L24.8671 3.56845H25.2028L25.3087 3.2475ZM27.2167 3.2475L27.3227 3.56845H27.6583L27.3845 3.76569L27.4905 4.08959L27.2167 3.88937L26.9429 4.08663L27.0489 3.76572L26.775 3.56845H27.1136L27.2167 3.2475ZM29.1276 3.2475L29.2306 3.56845H29.5693L29.2954 3.76569L29.3985 4.08959L29.1276 3.88937L28.8538 4.08663L28.9568 3.76572L28.6859 3.56845H29.0216L29.1276 3.2475ZM31.0356 3.2475L31.1416 3.56845H31.4772L31.2063 3.76569L31.3094 4.08959L31.0356 3.88937L30.7647 4.08663L30.8677 3.76572L30.5939 3.56845H30.9355L31.0356 3.2475ZM32.9465 3.2475L33.0495 3.56845H33.3881L33.1143 3.76569L33.2174 4.08959L32.9465 3.88937L32.6726 4.08663L32.7757 3.76572L32.5048 3.56845H32.8405L32.9465 3.2475ZM24.3518 4.06016L24.4578 4.3811H24.7935L24.5226 4.57834L24.6256 4.90224L24.3518 4.70202L24.0809 4.89929L24.184 4.57837L23.9102 4.3811H24.2517L24.3518 4.06016ZM26.2627 4.06016L26.3658 4.3811H26.7044L26.4305 4.57834L26.5336 4.89932L26.2627 4.70202L25.9889 4.89929L26.0919 4.57837L25.821 4.3811H26.1567L26.2627 4.06016ZM28.1707 4.06016L28.2767 4.3811H28.6094L28.3385 4.57834L28.4415 4.90224L28.1677 4.70202L27.8968 4.89929L27.9999 4.57837L27.7261 4.3811H28.0647L28.1707 4.06016ZM30.0816 4.06016L30.1846 4.3811H30.5232L30.2494 4.57834L30.3554 4.90224L30.0816 4.70202L29.8078 4.89929L29.9138 4.57837L29.6399 4.3811H29.9756L30.0816 4.06016ZM31.9896 4.06016L32.0956 4.3811H32.4312L32.1603 4.57834L32.2634 4.90224L31.9895 4.70202L31.7187 4.89929L31.8217 4.57837L31.5508 4.3811H31.8865L31.9896 4.06016ZM33.9005 4.06016L34.0035 4.3811H34.3421L34.0683 4.57834L34.1743 4.90224L33.9005 4.70202L33.6266 4.89929L33.7326 4.57837L33.4588 4.3811H33.7974L33.9005 4.06016ZM25.3087 4.87281L25.4118 5.19376H25.7504L25.4765 5.39099L25.5796 5.71197L25.3087 5.51175L25.0349 5.71197L25.1379 5.38807L24.8671 5.1908H25.2028L25.3087 4.87281ZM27.2167 4.87281L27.3227 5.19376H27.6583L27.3845 5.39099L27.4905 5.71197L27.2167 5.51175L26.9429 5.71197L27.0489 5.38807L26.775 5.1908H27.1136L27.2167 4.87281ZM29.1276 4.87281L29.2306 5.19376H29.5693L29.2954 5.39099L29.3985 5.71197L29.1276 5.51175L28.8538 5.71197L28.9568 5.38807L28.6859 5.1908H29.0216L29.1276 4.87281ZM31.0356 4.87281L31.1416 5.19376H31.4772L31.2063 5.39099L31.3094 5.71197L31.0356 5.51175L30.7647 5.71197L30.8677 5.38807L30.5939 5.1908H30.9355L31.0356 4.87281ZM32.9465 4.87281L33.0495 5.19376H33.3881L33.1143 5.39099L33.2174 5.71197L32.9465 5.51175L32.6726 5.71197L32.7757 5.38807L32.5048 5.1908H32.8405L32.9465 4.87281ZM24.3518 5.68251L24.4578 6.00641H24.7935L24.5226 6.20364L24.6256 6.52167L24.3518 6.3244L24.0809 6.52164L24.184 6.20072L23.9102 6.00346H24.2517L24.3518 5.68251ZM26.2627 5.68251L26.3658 6.00641H26.7044L26.4305 6.20364L26.5366 6.52167L26.2627 6.3244L25.9889 6.52164L26.0949 6.20072L25.821 6.00346H26.1567L26.2627 5.68251ZM28.1707 5.68251L28.2767 6.00641H28.6094L28.3385 6.20364L28.4415 6.52167L28.1677 6.3244L27.8968 6.52164L27.9999 6.20072L27.7261 6.00346H28.0647L28.1707 5.68251ZM30.0816 5.68251L30.1846 6.00641H30.5232L30.2494 6.20364L30.3554 6.52167L30.0816 6.3244L29.8078 6.52164L29.9138 6.20072L29.6399 6.00346H29.9756L30.0816 5.68251ZM31.9896 5.68251L32.0956 6.00641H32.4312L32.1603 6.20364L32.2634 6.52167L31.9895 6.3244L31.7187 6.52164L31.8217 6.20072L31.5508 6.00346H31.8865L31.9896 5.68251ZM33.9005 5.68251L34.0035 6.00641H34.3421L34.0683 6.20364L34.1743 6.52167L33.9005 6.3244L33.6266 6.52164L33.7326 6.20072L33.4588 6.00346H33.7974L33.9005 5.68251ZM25.3087 6.49516L25.4118 6.81611H25.7504L25.4765 7.01337L25.5796 7.33727L25.3087 7.13706L25.0349 7.33429L25.1379 7.01337L24.8671 6.81611H25.2028L25.3087 6.49516ZM27.2167 6.49516L27.3227 6.81611H27.6583L27.3845 7.01337L27.4905 7.33727L27.2167 7.13706L26.9429 7.33429L27.0489 7.01337L26.775 6.81611H27.1136L27.2167 6.49516ZM29.1276 6.49516L29.2306 6.81611H29.5693L29.2954 7.01337L29.3985 7.33727L29.1276 7.13706L28.8538 7.33429L28.9568 7.01337L28.6859 6.81611H29.0216L29.1276 6.49516ZM31.0356 6.49516L31.1416 6.81611H31.4772L31.2063 7.01337L31.3094 7.33727L31.0356 7.13706L30.7647 7.33429L30.8677 7.01337L30.5939 6.81611H30.9355L31.0356 6.49516ZM32.9465 6.49516L33.0495 6.81611H33.3881L33.1143 7.01337L33.2174 7.33727L32.9465 7.13706L32.6726 7.33429L32.7757 7.01337L32.5048 6.81611H32.8405L32.9465 6.49516ZM24.3518 7.30781L24.4578 7.62876H24.7935L24.5226 7.82603L24.6256 8.14697L24.3518 7.94971L24.0809 8.14694L24.184 7.82308L23.9102 7.62581H24.2517L24.3518 7.30781ZM26.2627 7.30781L26.3658 7.62876H26.7044L26.4305 7.82603L26.5366 8.14697L26.2627 7.94971L25.9889 8.14694L26.0949 7.82308L25.821 7.62581H26.1567L26.2627 7.30781ZM28.1707 7.30781L28.2767 7.62876H28.6094L28.3444 7.82603L28.4474 8.14697L28.1736 7.94971L27.9027 8.14694L28.0058 7.82308L27.732 7.62581H28.0706L28.1707 7.30781ZM30.0816 7.30781L30.1846 7.62876H30.5232L30.2494 7.82603L30.3554 8.14697L30.0816 7.94971L29.8078 8.14694L29.9138 7.82308L29.6399 7.62581H29.9756L30.0816 7.30781ZM31.9896 7.30781L32.0956 7.62876H32.4312L32.1603 7.82603L32.2634 8.14697L31.9895 7.94971L31.7187 8.14694L31.8217 7.82308L31.5508 7.62581H31.8865L31.9896 7.30781ZM33.9005 7.30781L34.0035 7.62876H34.3421L34.0683 7.82603L34.1743 8.14697L33.9005 7.94971L33.6266 8.14694L33.7326 7.82308L33.4588 7.62581H33.7974L33.9005 7.30781Z" fill="white"/>
</g>
<defs>
<clipPath id="clip0_2872_808">
<rect width="20.1004" height="15.0753" fill="white" transform="translate(0 0.462891)"/>
</clipPath>
<clipPath id="clip1_2872_808">
<rect width="20.1004" height="15.0753" fill="white" transform="translate(23.3984 0.462891)"/>
</clipPath>
</defs>
</svg>
