<svg width="56" height="56" viewBox="0 0 56 56" fill="none" xmlns="http://www.w3.org/2000/svg">
<path opacity="0.4" d="M36.3573 28.0057C36.3573 32.6257 32.624 36.359 28.004 36.359C23.384 36.359 19.6506 32.6257 19.6506 28.0057C19.6506 23.3857 23.384 19.6523 28.004 19.6523C32.624 19.6523 36.3573 23.3857 36.3573 28.0057Z" stroke="#F2C94C" stroke-width="3.48649" stroke-linecap="round" stroke-linejoin="round"/>
<path d="M27.9993 47.2944C36.2359 47.2944 43.9126 42.4411 49.2559 34.0411C51.3559 30.7511 51.3559 25.2211 49.2559 21.9311C43.9126 13.5311 36.2359 8.67773 27.9993 8.67773C19.7626 8.67773 12.0859 13.5311 6.7426 21.9311C4.6426 25.2211 4.6426 30.7511 6.7426 34.0411C12.0859 42.4411 19.7626 47.2944 27.9993 47.2944Z" stroke="#F2C94C" stroke-width="3.48649" stroke-linecap="round" stroke-linejoin="round"/>
</svg>
