<svg width="32" height="32" viewBox="0 0 32 32" fill="none" xmlns="http://www.w3.org/2000/svg">
<path d="M32 16C32 7.16253 24.8375 0 16 0C7.16253 0 0 7.16253 0 16C0 23.9875 5.85 30.6063 13.5 31.8063V20.625H9.43747V16H13.5V12.475C13.5 8.4656 15.8875 6.25 19.5437 6.25C21.2937 6.25 23.125 6.5625 23.125 6.5625V10.5H21.1063C19.1187 10.5 18.5 11.7344 18.5 13V16H22.9375L22.2281 20.625H18.5V31.8063C26.15 30.6063 32 23.9875 32 16Z" fill="#1877F2"/>
<path d="M22.2301 20.625L22.9395 16H18.502V13C18.502 11.7344 19.1207 10.5 21.1083 10.5H23.127V6.5625C23.127 6.5625 21.2957 6.25 19.5457 6.25C15.8895 6.25 13.502 8.4656 13.502 12.475V16H9.43945V20.625H13.502V31.8063C14.3176 31.9344 15.152 32 16.002 32C16.852 32 17.6864 31.9344 18.502 31.8063V20.625H22.2301Z" fill="white"/>
</svg>
