<svg width="56" height="56" viewBox="0 0 56 56" fill="none" xmlns="http://www.w3.org/2000/svg">
<path opacity="0.34" d="M20.2529 29.6808H24.3129V39.1308C24.3129 40.5308 26.0395 41.1842 26.9729 40.1342L36.9129 28.8408C37.1063 28.6216 37.2322 28.351 37.2755 28.0618C37.3188 27.7727 37.2775 27.4771 37.1567 27.2108C37.0359 26.9446 36.8407 26.7189 36.5945 26.561C36.3484 26.4031 36.0619 26.3197 35.7695 26.3208H31.7095V16.8708C31.7095 15.4708 29.9829 14.8175 29.0495 15.8675L19.1095 27.1608C18.9161 27.3801 18.7902 27.6506 18.7469 27.9398C18.7037 28.229 18.7449 28.5245 18.8657 28.7908C18.9865 29.0571 19.1818 29.2828 19.4279 29.4407C19.674 29.5986 19.9605 29.682 20.2529 29.6808Z" stroke="#F2C94C" stroke-width="3.48649" stroke-miterlimit="10" stroke-linecap="round" stroke-linejoin="round"/>
<path d="M27.9268 51.3327C40.8162 51.3327 51.2602 40.8863 51.2602 27.9994C51.2602 15.1124 40.8162 4.66602 27.9268 4.66602C15.0422 4.66602 4.59351 15.1124 4.59351 27.9994C4.59351 40.8863 15.0422 51.3327 27.9268 51.3327Z" stroke="#F2C94C" stroke-width="3.48649" stroke-miterlimit="10" stroke-linecap="round" stroke-linejoin="round"/>
</svg>
