<svg width="25" height="25" viewBox="0 0 25 25" fill="none" xmlns="http://www.w3.org/2000/svg">
<path d="M9.66211 22.7266H15.6621C20.6621 22.7266 22.6621 20.7266 22.6621 15.7266V9.72656C22.6621 4.72656 20.6621 2.72656 15.6621 2.72656H9.66211C4.66211 2.72656 2.66211 4.72656 2.66211 9.72656V15.7266C2.66211 20.7266 4.66211 22.7266 9.66211 22.7266Z" stroke="white" stroke-width="1.5" stroke-linecap="round" stroke-linejoin="round"/>
<path d="M2.66211 13.4267L8.66211 13.4067C9.41211 13.4067 10.2521 13.9767 10.5321 14.6767L11.6721 17.5567C11.9321 18.2067 12.3421 18.2067 12.6021 17.5567L14.8921 11.7467C15.1121 11.1867 15.5221 11.1667 15.8021 11.6967L16.8421 13.6667C17.1521 14.2567 17.9521 14.7367 18.6121 14.7367H22.6721" stroke="#FFFDFD" stroke-width="1.5" stroke-linecap="round" stroke-linejoin="round"/>
</svg>
