<svg width="34" height="35" viewBox="0 0 34 35" fill="none" xmlns="http://www.w3.org/2000/svg">
<path fill-rule="evenodd" clip-rule="evenodd" d="M9.6702 0.974609H24.1163C29.7898 0.974609 33.5599 5.02418 33.5599 10.8358V24.4467C33.5599 30.2587 29.7895 34.3079 24.1146 34.3079H9.6702C3.99664 34.3079 0.226562 30.2584 0.226562 24.4467V10.8358C0.226562 5.02906 4.00564 0.974609 9.6702 0.974609ZM23.7202 3.64844H9.27419C5.03422 3.64844 2.33594 6.54334 2.33594 11.0043V24.6152C2.33594 26.0744 2.62305 27.3652 3.1578 28.442L5.78255 25.1357L6.61173 24.0747C8.69887 21.3912 10.6122 20.2321 13.1181 21.3213C13.4987 21.487 13.8242 21.6659 14.2406 21.9326L15.3186 22.6544C16.3952 23.3626 16.9078 23.4643 17.6951 23.0216C18.395 22.6286 18.8859 22.079 19.6323 20.8866L20.1223 20.0777L20.4555 19.5231C20.7551 19.0319 20.9686 18.7096 21.2297 18.3585C22.9564 16.0395 25.6489 15.2844 28.0024 16.7535C28.9142 17.3237 29.6027 17.8901 30.6585 18.9149V11.0043C30.6585 6.53786 27.9685 3.64844 23.7202 3.64844ZM30.6585 22.4394C30.5771 22.3596 30.4909 22.2744 30.3982 22.1823L29.2571 21.0423C28.1628 19.9641 27.5367 19.4342 26.7371 18.9342C25.528 18.1794 24.1818 18.557 23.1711 19.9144L22.9667 20.2001C22.8988 20.2989 22.8298 20.4034 22.7553 20.5199L22.1164 21.5714C20.9117 23.5972 20.1806 24.5201 18.8631 25.2599C17.2405 26.1723 15.9182 25.9827 14.3103 24.9981L13.5958 24.5288L12.9949 24.1263C12.6611 23.9112 12.4226 23.7788 12.1698 23.6688C11.0758 23.1933 10.1037 23.7189 8.76127 25.3703L5.81371 29.1071C5.47969 29.5266 5.12226 29.9745 4.73383 30.4605C5.89602 31.4323 7.43984 31.971 9.27419 31.971H23.7186C27.9683 31.971 30.6585 29.0818 30.6585 24.6152V22.4394ZM6.94922 12.4747C6.94922 10.0812 8.89101 8.13867 11.2835 8.13867C13.6774 8.13867 15.6195 10.0808 15.6195 12.4747C15.6195 14.8685 13.6774 16.8106 11.2835 16.8106C8.89101 16.8106 6.94922 14.8681 6.94922 12.4747ZM13.1166 12.4751C13.1166 11.465 12.2961 10.6445 11.286 10.6445C10.2773 10.6445 9.45703 11.4651 9.45703 12.4751C9.45703 13.4851 10.2773 14.3057 11.286 14.3057C12.2961 14.3057 13.1166 13.4853 13.1166 12.4751Z" fill="#828282"/>
</svg>
