<svg width="33" height="32" viewBox="0 0 33 32" fill="none" xmlns="http://www.w3.org/2000/svg">
<path d="M0.332031 16C0.332031 7.16344 7.49548 0 16.332 0C25.1686 0 32.332 7.16344 32.332 16C32.332 24.8366 25.1686 32 16.332 32C7.49548 32 0.332031 24.8366 0.332031 16Z" fill="#0077B5"/>
<path fill-rule="evenodd" clip-rule="evenodd" d="M11.878 9.8818C11.878 10.9279 11.0906 11.7649 9.82629 11.7649H9.80312C8.5858 11.7649 7.79883 10.9279 7.79883 9.8818C7.79883 8.8136 8.60977 8 9.85018 8C11.0906 8 11.8545 8.8136 11.878 9.8818ZM11.6379 13.254V24.1485H8.012V13.254H11.6379ZM24.7147 24.1472L24.7148 17.9007C24.7148 14.5544 22.9261 12.9969 20.54 12.9969C18.6149 12.9969 17.753 14.0544 17.2717 14.7962V13.2531H13.6453C13.6931 14.2753 13.6453 24.1475 13.6453 24.1475H17.2717V18.0632C17.2717 17.7376 17.2952 17.4128 17.3911 17.1796C17.6532 16.5292 18.2498 15.8557 19.2516 15.8557C20.5642 15.8557 21.0889 16.8547 21.0889 18.3187V24.1472H24.7147Z" fill="white"/>
</svg>
