<svg width="56" height="56" viewBox="0 0 56 56" fill="none" xmlns="http://www.w3.org/2000/svg">
<path d="M39.6666 43.0033H30.3333L19.95 49.9099C19.5995 50.1435 19.1923 50.2776 18.7716 50.2979C18.351 50.3182 17.9327 50.2239 17.5614 50.0251C17.1902 49.8263 16.8799 49.5304 16.6636 49.169C16.4473 48.8077 16.3331 48.3944 16.3333 47.9733V43.0033C9.33329 43.0033 4.66663 38.3366 4.66663 31.3366V17.3366C4.66663 10.3366 9.33329 5.66992 16.3333 5.66992H39.6666C46.6666 5.66992 51.3333 10.3366 51.3333 17.3366V31.3366C51.3333 38.3366 46.6666 43.0033 39.6666 43.0033Z" stroke="#F2C94C" stroke-width="3.48649" stroke-miterlimit="10" stroke-linecap="round" stroke-linejoin="round"/>
<path opacity="0.4" d="M27.9997 26.5078V26.0178C27.9997 24.4311 28.9797 23.5911 29.9597 22.9145C30.9163 22.2611 31.873 21.4211 31.873 19.8811C31.873 17.7345 30.1463 16.0078 27.9997 16.0078C25.853 16.0078 24.1263 17.7345 24.1263 19.8811M27.988 32.0845H28.0113" stroke="#F2C94C" stroke-width="3.48649" stroke-linecap="round" stroke-linejoin="round"/>
</svg>
