<svg width="20" height="21" viewBox="0 0 20 21" fill="none" xmlns="http://www.w3.org/2000/svg">
<path d="M10.0002 10C11.3262 10 12.598 9.47322 13.5357 8.53553C14.4734 7.59785 15.0002 6.32608 15.0002 5C15.0002 3.67392 14.4734 2.40215 13.5357 1.46447C12.598 0.526784 11.3262 0 10.0002 0C8.67407 0 7.4023 0.526784 6.46462 1.46447C5.52694 2.40215 5.00016 3.67392 5.00016 5C5.00016 6.32608 5.52694 7.59785 6.46462 8.53553C7.4023 9.47322 8.67407 10 10.0002 10ZM10.0002 12.5C4.99016 12.5 0.910156 15.86 0.910156 20C0.910156 20.28 1.13016 20.5 1.41016 20.5H18.5902C18.8702 20.5 19.0902 20.28 19.0902 20C19.0902 15.86 15.0102 12.5 10.0002 12.5Z" fill="black"/>
</svg>
