<svg width="21" height="16" viewBox="0 0 21 16" fill="none" xmlns="http://www.w3.org/2000/svg">
<g clip-path="url(#clip0_2872_1410)">
<path d="M8.03906 0.462891H20.0991V15.5379H8.03906V0.462891Z" fill="#FF0000"/>
<path d="M0 0.462891H8.04V15.5379H0V0.462891Z" fill="#006600"/>
<path fill-rule="evenodd" clip-rule="evenodd" d="M10.663 10.0795C9.64862 10.0481 5.00992 7.15247 4.97852 6.68766L5.23291 6.26367C5.69458 6.93262 10.4369 9.74977 10.9049 9.64927L10.663 10.0795Z" fill="#FFFF00" stroke="black" stroke-width="0.075" stroke-linecap="round" stroke-linejoin="round"/>
<path fill-rule="evenodd" clip-rule="evenodd" d="M5.18008 6.20352C5.089 6.44848 6.39236 7.25248 7.95639 8.20723C9.52356 9.15884 10.874 9.74614 10.9714 9.66448L11.0185 9.57655C10.9997 9.60795 10.9557 9.61737 10.8835 9.59539C10.4595 9.47291 9.35711 8.96727 7.99094 8.13814C6.62163 7.30902 5.43447 6.54584 5.24917 6.22236C5.23473 6.19203 5.22824 6.15853 5.23033 6.125H5.22405L5.18636 6.19409L5.18008 6.20352ZM10.6856 10.0916C10.6699 10.123 10.6353 10.123 10.5757 10.1167C10.1988 10.0759 9.04933 9.51687 7.68944 8.70345C6.10656 7.75498 4.80006 6.89445 4.94453 6.66833L4.98222 6.59923L4.9885 6.60237C4.86288 6.98553 7.56695 8.53072 7.72713 8.63122C9.29116 9.59853 10.6102 10.167 10.7264 10.0194L10.6856 10.0916Z" fill="#FFFF00" stroke="black" stroke-width="0.075" stroke-linecap="round" stroke-linejoin="round"/>
<path fill-rule="evenodd" clip-rule="evenodd" d="M8.04678 6.96886C9.05806 6.95944 10.308 6.83067 11.0304 6.54173L10.8733 6.29048C10.4494 6.52603 9.19311 6.68306 8.03736 6.70505C6.67433 6.69248 5.71016 6.56372 5.2265 6.24023L5.08203 6.51033C5.96769 6.8872 6.87847 6.96572 8.04678 6.96886Z" fill="#FFFF00" stroke="black" stroke-width="0.075" stroke-linecap="round" stroke-linejoin="round"/>
<path fill-rule="evenodd" clip-rule="evenodd" d="M11.0722 6.54894C11.0471 6.58977 10.576 6.74994 9.88508 6.86928C9.276 6.96158 8.6607 7.00673 8.04467 7.00433C7.45445 7.00654 6.86476 6.96877 6.27964 6.89127C5.55416 6.7782 5.18042 6.62117 5.03909 6.56464L5.07364 6.49555C5.4725 6.65258 5.84938 6.7468 6.28906 6.81589C6.86991 6.89432 7.45542 6.93314 8.04153 6.93209C8.65437 6.93274 9.2664 6.88759 9.87252 6.79705C10.5792 6.68084 10.9655 6.53323 11.022 6.46728L11.0722 6.55208V6.54894ZM10.934 6.29455C10.8587 6.35736 10.4755 6.49241 9.80342 6.59919C9.22305 6.68315 8.63737 6.72514 8.05095 6.72481C7.36002 6.72481 6.79156 6.67456 6.3613 6.61175C5.67664 6.52381 5.31233 6.3605 5.18042 6.31653L5.22125 6.24744C5.32489 6.30083 5.6735 6.44216 6.36758 6.53952C6.92553 6.61425 7.48803 6.64993 8.05095 6.6463C8.63319 6.64648 9.21468 6.60449 9.79086 6.52067C10.4661 6.42645 10.8304 6.25686 10.8869 6.21289L10.934 6.29455ZM4.72189 8.18834C5.34373 8.52439 6.72875 8.69084 8.03839 8.70341C9.23183 8.70655 10.7833 8.52125 11.3643 8.21347L11.3486 7.87742C11.1665 8.16008 9.50192 8.43331 8.02583 8.42389C6.54973 8.41133 5.17728 8.1852 4.71875 7.88998V8.18834" fill="#FFFF00"/>
<path d="M4.72189 8.18834C5.34373 8.52439 6.72875 8.69084 8.03839 8.70341C9.23183 8.70655 10.7833 8.52125 11.3643 8.21347L11.3486 7.87742C11.1665 8.16008 9.50192 8.43331 8.02583 8.42389C6.54973 8.41133 5.17728 8.1852 4.71875 7.88998V8.18834M11.0722 6.54894C11.0471 6.58977 10.576 6.74994 9.88508 6.86928C9.276 6.96158 8.6607 7.00673 8.04467 7.00433C7.45445 7.00654 6.86476 6.96877 6.27964 6.89127C5.55416 6.7782 5.18042 6.62117 5.03909 6.56464L5.07364 6.49555C5.4725 6.65258 5.84937 6.7468 6.28906 6.81589C6.86991 6.89432 7.45542 6.93314 8.04153 6.93209C8.65437 6.93274 9.2664 6.88759 9.87252 6.79705C10.5792 6.68084 10.9655 6.53323 11.022 6.46728L11.0722 6.55208V6.54894ZM10.934 6.29455C10.8587 6.35736 10.4755 6.49241 9.80342 6.59919C9.22305 6.68315 8.63737 6.72514 8.05095 6.72481C7.36002 6.72481 6.79156 6.67456 6.3613 6.61175C5.67664 6.52381 5.31233 6.3605 5.18042 6.31653L5.22125 6.24744C5.32489 6.30083 5.6735 6.44216 6.36758 6.53952C6.92553 6.61425 7.48803 6.64993 8.05095 6.6463C8.63319 6.64648 9.21468 6.60449 9.79086 6.52067C10.4661 6.42645 10.8304 6.25686 10.8869 6.21289L10.934 6.29455Z" stroke="black" stroke-width="0.075" stroke-linecap="round" stroke-linejoin="round"/>
<path fill-rule="evenodd" clip-rule="evenodd" d="M11.3943 8.14092V8.21944C11.3064 8.32622 10.7599 8.48325 10.0753 8.59631C9.39509 8.69409 8.70847 8.74028 8.02131 8.7345C7.36973 8.74005 6.7187 8.6949 6.07412 8.59945C5.59316 8.54387 5.12317 8.41685 4.67969 8.22258V8.1315C4.98433 8.3325 5.80717 8.48325 6.08355 8.52722C6.57977 8.60259 7.21731 8.65912 8.02131 8.65912C8.86614 8.65912 9.54137 8.59945 10.0627 8.52094C10.5558 8.4487 11.2562 8.26341 11.3943 8.14092ZM11.3943 7.85827V7.93678C11.3064 8.04042 10.7599 8.19745 10.0753 8.31052C9.39517 8.40934 8.70855 8.45658 8.02131 8.45184C7.36978 8.45568 6.71889 8.41054 6.07412 8.3168C5.59316 8.26122 5.12317 8.13419 4.67969 7.93992V7.8457C4.98433 8.04984 5.81031 8.19745 6.08355 8.24142C6.72512 8.3354 7.3729 8.38055 8.02131 8.37647C8.86614 8.37647 9.54452 8.31366 10.0627 8.23514C10.5558 8.16605 11.2562 7.98075 11.3943 7.85827ZM8.03387 10.019C6.60175 10.0127 5.37377 9.62958 5.11309 9.56677L5.30153 9.86198C6.18245 10.174 7.11202 10.3261 8.04644 10.3111C9.13623 10.2797 10.0878 10.1949 10.7568 9.86827L10.9515 9.56048C10.4961 9.77719 8.94152 10.019 8.03073 10.019" fill="#FFFF00"/>
<path d="M8.03388 10.019C6.60175 10.0127 5.37377 9.62958 5.11309 9.56677L5.30153 9.86198C6.18245 10.174 7.11202 10.3261 8.04644 10.3111C9.13623 10.2797 10.0878 10.1949 10.7568 9.86827L10.9515 9.56048C10.4961 9.77719 8.94152 10.019 8.03073 10.019M11.3943 8.14092V8.21944C11.3064 8.32622 10.7599 8.48325 10.0753 8.59631C9.39509 8.69409 8.70847 8.74028 8.02131 8.7345C7.36973 8.74005 6.7187 8.6949 6.07412 8.59945C5.59316 8.54387 5.12317 8.41685 4.67969 8.22258V8.1315C4.98433 8.3325 5.80717 8.48325 6.08355 8.52722C6.57977 8.60259 7.21731 8.65912 8.02131 8.65912C8.86614 8.65912 9.54137 8.59945 10.0627 8.52094C10.5558 8.4487 11.2562 8.26341 11.3943 8.14092ZM11.3943 7.85827V7.93678C11.3064 8.04042 10.7599 8.19745 10.0753 8.31052C9.39517 8.40934 8.70855 8.45658 8.02131 8.45184C7.36978 8.45568 6.71889 8.41054 6.07412 8.3168C5.59316 8.26122 5.12317 8.13419 4.67969 7.93992V7.8457C4.98433 8.04984 5.81031 8.19745 6.08355 8.24142C6.72512 8.3354 7.3729 8.38055 8.02131 8.37647C8.86614 8.37647 9.54452 8.31366 10.0627 8.23514C10.5558 8.16605 11.2562 7.98075 11.3943 7.85827Z" stroke="black" stroke-width="0.075" stroke-linecap="round" stroke-linejoin="round"/>
<path fill-rule="evenodd" clip-rule="evenodd" d="M10.8322 9.79905C10.8037 9.84142 10.7743 9.8833 10.7443 9.92467C10.4303 10.0377 9.92775 10.1571 9.72047 10.1885C9.16426 10.2921 8.59974 10.3447 8.03395 10.3455C6.76514 10.3267 5.72559 10.0786 5.2388 9.865L5.19797 9.79905L5.20425 9.78648L5.2702 9.81475C6.16404 10.1105 7.09875 10.2642 8.04023 10.2701C8.63067 10.2701 9.21797 10.2042 9.6922 10.1194C10.4208 9.97178 10.716 9.86186 10.8071 9.81161L10.8291 9.79905H10.8322ZM10.9987 9.52267C10.978 9.55946 10.9571 9.5961 10.9359 9.63259C10.7663 9.69541 10.3078 9.82731 9.63881 9.92153C9.19912 9.9812 8.92589 10.0409 8.04966 10.0566C7.04799 10.0465 6.05248 9.89857 5.09119 9.61689L5.05664 9.53838C6.03333 9.80831 7.03974 9.956 8.0528 9.97806C8.85366 9.96236 9.19598 9.90269 9.63253 9.84302C10.4114 9.72367 10.804 9.59177 10.9202 9.55722C10.9203 9.55513 10.9203 9.55303 10.9202 9.55094L11.0018 9.51953L10.9987 9.52267Z" fill="#FFFF00" stroke="black" stroke-width="0.075" stroke-linecap="round" stroke-linejoin="round"/>
<path fill-rule="evenodd" clip-rule="evenodd" d="M11.0188 7.92345C11.022 8.86564 10.5383 9.71361 10.152 10.0842C9.58149 10.6407 8.81956 10.9576 8.02269 10.9699C7.07108 10.9856 6.176 10.3669 5.93418 10.0936C5.39318 9.51991 5.08528 8.76526 5.0705 7.97684C5.12704 6.94672 5.53218 6.23066 6.11633 5.73758C6.6838 5.27043 7.39763 5.01803 8.13261 5.02466C8.56166 5.04546 8.98163 5.15566 9.36562 5.34819C9.7496 5.54072 10.0891 5.81135 10.3625 6.14272C10.755 6.62009 10.9278 7.1383 11.0188 7.92345ZM8.02897 4.70117C8.90756 4.70115 9.75053 5.04844 10.3741 5.66733C10.9977 6.28623 11.3514 7.12655 11.358 8.00511C11.358 8.44105 11.2722 8.87272 11.1053 9.27548C10.9385 9.67824 10.694 10.0442 10.3857 10.3524C10.0775 10.6607 9.71152 10.9052 9.30877 11.0721C8.90601 11.2389 8.47434 11.3247 8.0384 11.3247C7.60245 11.3247 7.17078 11.2389 6.76802 11.0721C6.36527 10.9052 5.99931 10.6607 5.69106 10.3524C5.3828 10.0442 5.13827 9.67824 4.97145 9.27548C4.80462 8.87272 4.71875 8.44105 4.71875 8.00511C4.71561 6.18355 6.20427 4.70117 8.02897 4.70117Z" fill="#FFFF00" stroke="black" stroke-width="0.075" stroke-linecap="round" stroke-linejoin="round"/>
<path fill-rule="evenodd" clip-rule="evenodd" d="M8.03602 4.68555C9.86386 4.68555 11.3525 6.1742 11.3525 8.00205C11.3525 9.82989 9.86386 11.3185 8.03916 11.3185C6.21445 11.3185 4.72266 9.82989 4.72266 8.00205C4.72266 6.1742 6.21131 4.68555 8.03916 4.68555H8.03602ZM4.79175 7.99891C4.79175 9.78278 6.25842 11.2432 8.03602 11.2432C9.81361 11.2432 11.2803 9.78278 11.2803 7.99891C11.2803 6.21503 9.81361 4.75464 8.03602 4.75464C6.25842 4.75464 4.79175 6.21503 4.79175 7.99891Z" fill="#FFFF00" stroke="black" stroke-width="0.075" stroke-linecap="round" stroke-linejoin="round"/>
<path fill-rule="evenodd" clip-rule="evenodd" d="M8.04089 4.96289C8.84558 4.96538 9.61661 5.28614 10.1856 5.85515C10.7546 6.42415 11.0754 7.19518 11.0779 7.99987C11.0754 8.80486 10.7547 9.57621 10.1858 10.1457C9.61689 10.7152 8.84587 11.0367 8.04089 11.04C6.37636 11.04 5.00391 9.67069 5.00391 7.99987C5.00721 7.19544 5.32824 6.42489 5.89707 5.85606C6.4659 5.28723 7.23645 4.9662 8.04089 4.96289ZM5.07614 7.99987C5.07614 9.633 6.41405 10.9646 8.04089 10.9646C9.66773 10.9646 11.0056 9.62986 11.0056 7.99987C11.0056 6.36675 9.66773 5.03513 8.04089 5.03513C7.25561 5.03843 6.50343 5.35185 5.94815 5.90713C5.39287 6.46242 5.07945 7.21459 5.07614 7.99987Z" fill="#FFFF00" stroke="black" stroke-width="0.075" stroke-linecap="round" stroke-linejoin="round"/>
<path fill-rule="evenodd" clip-rule="evenodd" d="M8.17642 4.66992H7.89062V11.3375H8.17328L8.17642 4.66992Z" fill="#FFFF00" stroke="black" stroke-width="0.075" stroke-linecap="round" stroke-linejoin="round"/>
<path fill-rule="evenodd" clip-rule="evenodd" d="M8.14398 4.63281H8.21622V11.3757H8.14712V4.63281H8.14398ZM7.86133 4.63281H7.9367V11.3757H7.86447V4.63281H7.86133Z" fill="#FFFF00" stroke="black" stroke-width="0.075" stroke-linecap="round" stroke-linejoin="round"/>
<path fill-rule="evenodd" clip-rule="evenodd" d="M11.3557 8.13183V7.88686L11.1547 7.69842L10.0147 7.39692L8.37528 7.23047L6.39669 7.33097L4.98969 7.66388L4.70703 7.8743V8.12241L5.42623 7.79892L7.13473 7.53197H8.77728L9.98328 7.66388L10.8187 7.86487L11.3557 8.13183Z" fill="#FFFF00" stroke="black" stroke-width="0.075" stroke-linecap="round" stroke-linejoin="round"/>
<path fill-rule="evenodd" clip-rule="evenodd" d="M8.04016 7.49083C8.82217 7.49083 9.57906 7.56307 10.1852 7.67927C10.807 7.80489 11.2436 7.96193 11.3943 8.13466V8.2226C11.2122 8.00275 10.6249 7.84572 10.1695 7.7515C9.57278 7.63844 8.81903 7.56307 8.03702 7.56307C7.21731 7.56307 6.451 7.64472 5.86056 7.75779C5.38947 7.852 4.7582 8.04044 4.67969 8.2226V8.13152C4.72052 8.00589 5.19161 7.81746 5.85114 7.68241C6.44472 7.56621 7.21103 7.49083 8.03702 7.49083H8.04016ZM8.04016 7.20504C8.75937 7.20359 9.47726 7.26666 10.1852 7.39347C10.807 7.5191 11.2436 7.67613 11.3943 7.852V7.9368C11.2122 7.7201 10.6249 7.55993 10.1695 7.46885C9.57278 7.35264 8.81903 7.28041 8.03702 7.28041C7.30812 7.2781 6.58058 7.34329 5.8637 7.47513C5.40831 7.55993 4.75192 7.75464 4.67969 7.9368V7.84886C4.72366 7.72324 5.20103 7.52538 5.85114 7.39975C6.44786 7.28355 7.21103 7.20504 8.04016 7.20504ZM8.02131 5.75407C9.25558 5.74779 10.3328 5.9268 10.8259 6.17805L11.0049 6.49211C10.5778 6.25971 9.41575 6.02102 8.02445 6.05243C6.89069 6.06185 5.67841 6.17805 5.07227 6.50468L5.28583 6.14664C5.78519 5.88597 6.95978 5.75407 8.02131 5.75407Z" fill="#FFFF00" stroke="black" stroke-width="0.075" stroke-linecap="round" stroke-linejoin="round"/>
<path fill-rule="evenodd" clip-rule="evenodd" d="M8.04066 6.01107C8.68509 6.0002 9.32925 6.04538 9.96586 6.14612C10.4684 6.24034 10.9489 6.37852 11.018 6.4539L11.0714 6.54812C10.9049 6.44134 10.4872 6.31885 9.9533 6.21835C9.41939 6.11785 8.73787 6.08331 8.03752 6.08645C7.24294 6.08331 6.62423 6.12413 6.09661 6.21835C5.73289 6.26933 5.37976 6.37856 5.05078 6.54184L5.10417 6.44448C5.29261 6.35026 5.58469 6.23406 6.08091 6.14298C6.63052 6.04248 7.2555 6.01421 8.04066 6.01107ZM8.04066 5.72842C8.71275 5.72213 9.37856 5.75982 9.89677 5.85404C10.2325 5.90389 10.5574 6.01007 10.8578 6.1681L10.9363 6.29373C10.8044 6.14612 10.3082 6.00479 9.86536 5.92942C9.3503 5.83834 8.71275 5.80379 8.04066 5.79751C7.41502 5.79193 6.78999 5.83815 6.17198 5.9357C5.84884 5.98072 5.53499 6.07721 5.24236 6.22149L5.31145 6.11785C5.49361 6.02363 5.78883 5.9357 6.15942 5.86346C6.78151 5.76464 7.41081 5.71841 8.04066 5.72527V5.72842ZM9.68634 9.38096C9.14198 9.28672 8.58987 9.24465 8.03752 9.25534C5.98041 9.28046 5.31773 9.67932 5.23608 9.79867L5.07905 9.54741C5.60667 9.17054 6.72473 8.95698 8.05008 8.97582C8.73787 8.98838 9.33145 9.03549 9.82767 9.13285L9.68634 9.3841" fill="#FFFF00"/>
<path d="M9.68634 9.38096C9.14198 9.28671 8.58987 9.24465 8.03752 9.25534C5.98041 9.28046 5.31773 9.67932 5.23608 9.79867L5.07905 9.54741C5.60667 9.17054 6.72473 8.95698 8.05008 8.97582C8.73787 8.98838 9.33145 9.03549 9.82767 9.13285L9.68634 9.3841M8.04066 6.01107C8.68509 6.0002 9.32925 6.04538 9.96586 6.14612C10.4684 6.24034 10.9489 6.37852 11.018 6.4539L11.0714 6.54812C10.9049 6.44134 10.4872 6.31885 9.9533 6.21835C9.41939 6.11785 8.73787 6.08331 8.03752 6.08645C7.24294 6.08331 6.62423 6.12413 6.09661 6.21835C5.73289 6.26933 5.37976 6.37856 5.05078 6.54184L5.10417 6.44448C5.29261 6.35026 5.58469 6.23406 6.08091 6.14298C6.63052 6.04248 7.2555 6.01421 8.04066 6.01107ZM8.04066 5.72842C8.71275 5.72213 9.37856 5.75982 9.89677 5.85404C10.2325 5.90389 10.5574 6.01007 10.8578 6.1681L10.9363 6.29373C10.8044 6.14612 10.3082 6.00479 9.86536 5.92942C9.3503 5.83834 8.71275 5.80379 8.04066 5.79751C7.41502 5.79193 6.79 5.83815 6.17198 5.9357C5.84884 5.98072 5.53499 6.07721 5.24236 6.22149L5.31145 6.11785C5.49361 6.02363 5.78883 5.9357 6.15942 5.86346C6.78151 5.76464 7.41081 5.71841 8.04066 5.72527V5.72842Z" stroke="black" stroke-width="0.075" stroke-linecap="round" stroke-linejoin="round"/>
<path fill-rule="evenodd" clip-rule="evenodd" d="M8.02886 9.22058C8.60045 9.23 9.15948 9.25199 9.70281 9.35249L9.66513 9.42158C9.16263 9.32736 8.62244 9.29596 8.032 9.29596C7.26883 9.28968 6.50252 9.36191 5.83356 9.55349C5.62314 9.61316 5.27453 9.74821 5.23684 9.86127L5.19916 9.79846C5.21172 9.72936 5.419 9.59118 5.81472 9.4844C6.58103 9.26455 7.29709 9.22372 8.02886 9.22058ZM8.05398 8.93165C8.65729 8.93103 9.25948 8.98358 9.85356 9.08868L9.81273 9.16091C9.23262 9.0545 8.64377 9.00297 8.05398 9.00702C7.29395 9.00702 6.48681 9.06355 5.75191 9.27711C5.51636 9.34621 5.10494 9.49696 5.09238 9.61316L5.05469 9.54407C5.06097 9.43729 5.41586 9.29596 5.7362 9.20488C6.47425 8.98818 7.28453 8.93479 8.05398 8.93165Z" fill="#FFFF00" stroke="black" stroke-width="0.075" stroke-linecap="round" stroke-linejoin="round"/>
<path fill-rule="evenodd" clip-rule="evenodd" d="M10.9742 9.58597L10.7292 9.97227L10.0163 9.341L8.17586 8.10045L6.09677 6.96041L5.01953 6.59295L5.2488 6.16583L5.32731 6.125L5.99627 6.29145L8.20727 7.4315L9.48236 8.2355L10.5533 9.00495L10.9899 9.50745L10.9742 9.58597Z" fill="#FFFF00" stroke="black" stroke-width="0.075" stroke-linecap="round" stroke-linejoin="round"/>
<path fill-rule="evenodd" clip-rule="evenodd" d="M4.98028 6.60221C5.16872 6.47658 6.55687 7.09214 8.01412 7.97152C9.46195 8.85089 10.8501 9.84333 10.7245 10.0286L10.6837 10.0946L10.6648 10.1103C10.668 10.1071 10.6899 10.0789 10.6648 10.0129C10.602 9.80878 9.61584 9.02363 7.98586 8.03747C6.39356 7.09214 5.06822 6.52055 4.93945 6.68386L4.98028 6.60221ZM11.0228 9.58266C11.1422 9.34397 9.85453 8.37352 8.25595 7.42819C6.62283 6.50171 5.44195 5.95524 5.22525 6.11855L5.18128 6.20963C5.18128 6.21277 5.18128 6.20335 5.19384 6.19392C5.23153 6.16252 5.29748 6.16252 5.32575 6.16252C5.69634 6.1688 6.75473 6.6556 8.24025 7.50671C8.8935 7.88358 10.9914 9.23405 10.982 9.61092C10.982 9.64233 10.9852 9.64861 10.9726 9.66746L11.026 9.5858L11.0228 9.58266Z" fill="#FFFF00" stroke="black" stroke-width="0.075" stroke-linecap="round" stroke-linejoin="round"/>
<path d="M6.05078 8.36945C6.05128 8.6295 6.10335 8.88686 6.20398 9.12665C6.30461 9.36644 6.4518 9.58388 6.63703 9.7664C6.82001 9.95219 7.03794 10.0999 7.27827 10.2011C7.5186 10.3023 7.77657 10.355 8.03734 10.356C8.56508 10.356 9.07119 10.1463 9.44434 9.7731C9.62892 9.58958 9.77543 9.3714 9.87546 9.13109C9.97549 8.89079 10.0271 8.63309 10.0272 8.3728V5.71959L6.05078 5.71289V8.36945Z" fill="white" stroke="black" stroke-width="0.0933336"/>
<path d="M6.125 8.37359C6.12571 8.62304 6.1758 8.86988 6.2724 9.09987C6.369 9.32986 6.51018 9.53845 6.6878 9.71359C7.04446 10.0721 7.52879 10.2745 8.03451 10.2764C8.53934 10.2767 9.02366 10.0767 9.38121 9.72029C9.55823 9.54487 9.69879 9.33616 9.79481 9.10618C9.89082 8.87621 9.94039 8.62951 9.94066 8.38029V5.80078H6.1317V8.37359M9.18021 6.57463V8.21279L9.17686 8.38364C9.17799 8.5333 9.1489 8.68165 9.09134 8.8198C9.03377 8.95795 8.94892 9.08306 8.84186 9.18764C8.62882 9.40142 8.33965 9.5219 8.03786 9.52264C7.72295 9.52264 7.4449 9.38864 7.2372 9.18094C7.02343 8.96791 6.90294 8.67874 6.9022 8.37694V6.56793L9.18021 6.57463Z" fill="#FF0000"/>
<path d="M6.125 8.37359C6.12571 8.62304 6.1758 8.86988 6.2724 9.09987C6.369 9.32986 6.51018 9.53845 6.6878 9.71359C7.04446 10.0721 7.52879 10.2745 8.03451 10.2764C8.53934 10.2767 9.02366 10.0767 9.38121 9.72029C9.55823 9.54487 9.69879 9.33616 9.79481 9.10618C9.89082 8.87621 9.94039 8.62951 9.94066 8.38029V5.80078H6.1317V8.37359M9.18021 6.57463V8.21279L9.17686 8.38364C9.17799 8.5333 9.1489 8.68165 9.09134 8.8198C9.03377 8.95795 8.94892 9.08306 8.84186 9.18764C8.62882 9.40142 8.33965 9.5219 8.03786 9.52264C7.72295 9.52264 7.4449 9.38864 7.2372 9.18094C7.02343 8.96791 6.90294 8.67874 6.9022 8.37694V6.56793L9.18021 6.57463Z" stroke="black" stroke-width="0.0666669"/>
<path d="M6.37305 6.47194C6.3764 6.28769 6.50705 6.24414 6.50705 6.24414C6.5104 6.24414 6.6511 6.29104 6.6511 6.47529H6.37305" fill="#FFFF00"/>
<path d="M6.25868 6.24749L6.23523 6.45854H6.37593C6.37593 6.28434 6.50993 6.25754 6.50993 6.25754C6.51328 6.25754 6.64393 6.29439 6.64728 6.45854H6.78798L6.76118 6.24414H6.25868V6.24749ZM6.22518 6.46189H6.79468C6.80473 6.46189 6.81478 6.47194 6.81478 6.48534C6.81478 6.50209 6.80473 6.51214 6.79468 6.51214H6.22518C6.21513 6.51214 6.20508 6.50209 6.20508 6.48534C6.20508 6.47194 6.21513 6.46189 6.22853 6.46189H6.22518Z" fill="#FFFF00" stroke="black" stroke-width="0.0666669"/>
<path d="M6.43315 6.45931C6.43315 6.34876 6.5102 6.31861 6.5102 6.31861C6.5102 6.31861 6.58725 6.35211 6.58725 6.45931H6.43315ZM6.23885 6.15781H6.7849C6.79495 6.15781 6.805 6.17121 6.805 6.18461C6.805 6.19466 6.79495 6.20471 6.7849 6.20471H6.23885C6.2288 6.20471 6.21875 6.19466 6.21875 6.18126C6.21875 6.17121 6.2288 6.16116 6.23885 6.16116V6.15781ZM6.25225 6.20806H6.76815C6.7782 6.20806 6.78825 6.21811 6.78825 6.23151C6.78825 6.24491 6.7782 6.25496 6.76815 6.25496H6.2489C6.2355 6.25496 6.2288 6.24491 6.2288 6.23151C6.2288 6.21811 6.2355 6.20806 6.2489 6.20806H6.25225ZM6.41975 5.85296H6.45995V5.87976H6.4901V5.85296H6.53365V5.88311H6.5638V5.84961H6.604V5.91661C6.604 5.93001 6.5973 5.93671 6.58725 5.93671H6.43985C6.4298 5.93671 6.41975 5.93001 6.41975 5.91996V5.85296ZM6.57385 5.94341L6.5839 6.15781H6.43985L6.4499 5.94006H6.57385" fill="#FFFF00"/>
<path d="M6.57385 5.94341L6.5839 6.15781H6.43985L6.4499 5.94006H6.57385M6.43315 6.45931C6.43315 6.34876 6.5102 6.31861 6.5102 6.31861C6.5102 6.31861 6.58725 6.35211 6.58725 6.45931H6.43315ZM6.23885 6.15781H6.7849C6.79495 6.15781 6.805 6.17121 6.805 6.18461C6.805 6.19466 6.79495 6.20471 6.7849 6.20471H6.23885C6.2288 6.20471 6.21875 6.19466 6.21875 6.18126C6.21875 6.17121 6.2288 6.16116 6.23885 6.16116V6.15781ZM6.25225 6.20806H6.76815C6.7782 6.20806 6.78825 6.21811 6.78825 6.23151C6.78825 6.24491 6.7782 6.25496 6.76815 6.25496H6.2489C6.2355 6.25496 6.2288 6.24491 6.2288 6.23151C6.2288 6.21811 6.2355 6.20806 6.2489 6.20806H6.25225ZM6.41975 5.85296H6.45995V5.87976H6.4901V5.85296H6.53365V5.88311H6.5638V5.84961H6.604V5.91661C6.604 5.93001 6.5973 5.93671 6.58725 5.93671H6.43985C6.4298 5.93671 6.41975 5.93001 6.41975 5.91996V5.85296Z" stroke="black" stroke-width="0.0666669"/>
<path d="M6.39963 6.04297V6.15687H6.26562V6.04297H6.39963Z" fill="#FFFF00" stroke="black" stroke-width="0.0666669"/>
<path d="M6.39963 6.04297V6.15687H6.26562V6.04297H6.39963Z" fill="#FFFF00" stroke="black" stroke-width="0.0666669"/>
<path d="M6.24219 5.95703H6.28239V5.99053H6.31254V5.95703H6.35274V5.99053H6.38289V5.95703H6.42309V6.02403C6.42309 6.03743 6.41639 6.04413 6.40634 6.04413H6.26229C6.25696 6.04413 6.25184 6.04201 6.24807 6.03824C6.24431 6.03448 6.24219 6.02936 6.24219 6.02403V5.95703Z" fill="#FFFF00" stroke="black" stroke-width="0.0666669"/>
<path d="M6.24219 5.95703H6.28239V5.99053H6.31254V5.95703H6.35274V5.99053H6.38289V5.95703H6.42309V6.02403C6.42309 6.03743 6.41639 6.04413 6.40634 6.04413H6.26229C6.25696 6.04413 6.25184 6.04201 6.24807 6.03824C6.24431 6.03448 6.24219 6.02936 6.24219 6.02403V5.95703Z" fill="#FFFF00" stroke="black" stroke-width="0.0666669"/>
<path d="M6.49609 6.01117C6.49609 5.99107 6.52624 5.99107 6.52624 6.01117V6.06477H6.49609V6.01117Z" fill="black"/>
<path d="M6.32031 6.08343C6.32031 6.06333 6.34711 6.06333 6.34711 6.08343V6.12363H6.32031V6.08343Z" fill="black"/>
<path d="M6.32031 6.08343C6.32031 6.06333 6.34711 6.06333 6.34711 6.08343V6.12363H6.32031V6.08343Z" fill="black"/>
<path d="M6.37305 6.47194C6.3764 6.28769 6.50705 6.24414 6.50705 6.24414C6.5104 6.24414 6.6511 6.29104 6.6511 6.47529H6.37305" fill="#FFFF00"/>
<path d="M6.25868 6.24749L6.23523 6.45854H6.37593C6.37593 6.28434 6.50993 6.25754 6.50993 6.25754C6.51328 6.25754 6.64393 6.29439 6.64728 6.45854H6.78798L6.76118 6.24414H6.25868V6.24749ZM6.22518 6.46189H6.79468C6.80473 6.46189 6.81478 6.47194 6.81478 6.48534C6.81478 6.50209 6.80473 6.51214 6.79468 6.51214H6.22518C6.21513 6.51214 6.20508 6.50209 6.20508 6.48534C6.20508 6.47194 6.21513 6.46189 6.22853 6.46189H6.22518Z" fill="#FFFF00" stroke="black" stroke-width="0.0666669"/>
<path d="M6.43315 6.45931C6.43315 6.34876 6.5102 6.31861 6.5102 6.31861C6.5102 6.31861 6.58725 6.35211 6.58725 6.45931H6.43315ZM6.23885 6.15781H6.7849C6.79495 6.15781 6.805 6.17121 6.805 6.18461C6.805 6.19466 6.79495 6.20471 6.7849 6.20471H6.23885C6.2288 6.20471 6.21875 6.19466 6.21875 6.18126C6.21875 6.17121 6.2288 6.16116 6.23885 6.16116V6.15781ZM6.25225 6.20806H6.76815C6.7782 6.20806 6.78825 6.21811 6.78825 6.23151C6.78825 6.24491 6.7782 6.25496 6.76815 6.25496H6.2489C6.2355 6.25496 6.2288 6.24491 6.2288 6.23151C6.2288 6.21811 6.2355 6.20806 6.2489 6.20806H6.25225ZM6.41975 5.85296H6.45995V5.87976H6.4901V5.85296H6.53365V5.88311H6.5638V5.84961H6.604V5.91661C6.604 5.93001 6.5973 5.93671 6.58725 5.93671H6.43985C6.4298 5.93671 6.41975 5.93001 6.41975 5.91996V5.85296ZM6.57385 5.94341L6.5839 6.15781H6.43985L6.4499 5.94006H6.57385" fill="#FFFF00"/>
<path d="M6.57385 5.94341L6.5839 6.15781H6.43985L6.4499 5.94006H6.57385M6.43315 6.45931C6.43315 6.34876 6.5102 6.31861 6.5102 6.31861C6.5102 6.31861 6.58725 6.35211 6.58725 6.45931H6.43315ZM6.23885 6.15781H6.7849C6.79495 6.15781 6.805 6.17121 6.805 6.18461C6.805 6.19466 6.79495 6.20471 6.7849 6.20471H6.23885C6.2288 6.20471 6.21875 6.19466 6.21875 6.18126C6.21875 6.17121 6.2288 6.16116 6.23885 6.16116V6.15781ZM6.25225 6.20806H6.76815C6.7782 6.20806 6.78825 6.21811 6.78825 6.23151C6.78825 6.24491 6.7782 6.25496 6.76815 6.25496H6.2489C6.2355 6.25496 6.2288 6.24491 6.2288 6.23151C6.2288 6.21811 6.2355 6.20806 6.2489 6.20806H6.25225ZM6.41975 5.85296H6.45995V5.87976H6.4901V5.85296H6.53365V5.88311H6.5638V5.84961H6.604V5.91661C6.604 5.93001 6.5973 5.93671 6.58725 5.93671H6.43985C6.4298 5.93671 6.41975 5.93001 6.41975 5.91996V5.85296Z" stroke="black" stroke-width="0.0666669"/>
<path d="M6.39963 6.04297V6.15687H6.26562V6.04297H6.39963Z" fill="#FFFF00" stroke="black" stroke-width="0.0666669"/>
<path d="M6.39963 6.04297V6.15687H6.26562V6.04297H6.39963Z" fill="#FFFF00" stroke="black" stroke-width="0.0666669"/>
<path d="M6.24219 5.95703H6.28239V5.99053H6.31254V5.95703H6.35274V5.99053H6.38289V5.95703H6.42309V6.02403C6.42309 6.03743 6.41639 6.04413 6.40634 6.04413H6.26229C6.25696 6.04413 6.25184 6.04201 6.24807 6.03824C6.24431 6.03448 6.24219 6.02936 6.24219 6.02403V5.95703Z" fill="#FFFF00" stroke="black" stroke-width="0.0666669"/>
<path d="M6.24219 5.95703H6.28239V5.99053H6.31254V5.95703H6.35274V5.99053H6.38289V5.95703H6.42309V6.02403C6.42309 6.03743 6.41639 6.04413 6.40634 6.04413H6.26229C6.25696 6.04413 6.25184 6.04201 6.24807 6.03824C6.24431 6.03448 6.24219 6.02936 6.24219 6.02403V5.95703Z" fill="#FFFF00" stroke="black" stroke-width="0.0666669"/>
<path d="M6.49609 6.01117C6.49609 5.99107 6.52624 5.99107 6.52624 6.01117V6.06477H6.49609V6.01117Z" fill="black"/>
<path d="M6.32031 6.08343C6.32031 6.06333 6.34711 6.06333 6.34711 6.08343V6.12363H6.32031V6.08343Z" fill="black"/>
<path d="M6.32031 6.08343C6.32031 6.06333 6.34711 6.06333 6.34711 6.08343V6.12363H6.32031V6.08343Z" fill="black"/>
<path d="M6.97609 9.64098C6.84772 9.50878 6.90887 9.38539 6.90887 9.38539C6.91123 9.38301 7.04366 9.31622 7.17439 9.44605L6.97847 9.64335" fill="#FFFF00"/>
<path d="M6.73741 9.56394L6.87064 9.72929L6.96979 9.62945C6.84618 9.5067 6.92158 9.39274 6.92158 9.39274C6.92394 9.39036 7.04215 9.32362 7.16099 9.43691L7.26013 9.33707L7.08911 9.20502L6.73503 9.56158L6.73741 9.56394ZM6.86594 9.73878L7.26723 9.33468C7.27431 9.32755 7.28852 9.3275 7.29803 9.33694C7.30992 9.34874 7.30997 9.36296 7.30288 9.37009L6.90159 9.77419C6.89451 9.78132 6.8803 9.78137 6.86841 9.76957C6.85891 9.76013 6.85886 9.74591 6.8683 9.7364L6.86594 9.73878Z" fill="#FFFF00" stroke="black" stroke-width="0.0666669"/>
<path d="M7.00948 9.58803C6.93104 9.51013 6.96394 9.43422 6.96394 9.43422C6.96394 9.43422 7.042 9.40315 7.11807 9.47869L7.00948 9.58803ZM6.65863 9.51345L7.0434 9.12599C7.05048 9.11886 7.06707 9.12117 7.07658 9.13061C7.08371 9.13769 7.08376 9.15191 7.07668 9.15904L6.69191 9.5465C6.68483 9.55363 6.67062 9.55368 6.66111 9.54424C6.65398 9.53716 6.65393 9.52295 6.66101 9.51581L6.65863 9.51345ZM6.70373 9.53935L7.06725 9.17328C7.07434 9.16615 7.08855 9.1661 7.09806 9.17555C7.10757 9.18499 7.10762 9.1992 7.10053 9.20633L6.73465 9.57478C6.72521 9.58429 6.71336 9.58196 6.70385 9.57252C6.69434 9.56307 6.69193 9.55124 6.70137 9.54173L6.70373 9.53935ZM6.56979 9.17028L6.59812 9.14176L6.61713 9.16064L6.63838 9.13925L6.61936 9.12036L6.65005 9.08946L6.67144 9.11071L6.69269 9.08931L6.66892 9.06571L6.69724 9.03718L6.74478 9.08439C6.75429 9.09384 6.75432 9.10331 6.74724 9.11044L6.64338 9.21503C6.6363 9.22217 6.62446 9.22458 6.61733 9.21749L6.56979 9.17028ZM6.74256 9.12467L6.90177 9.26862L6.80027 9.37083L6.65284 9.21026L6.74018 9.12231" fill="#FFFF00"/>
<path d="M6.74256 9.12467L6.90177 9.26862L6.80027 9.37083L6.65284 9.21026L6.74018 9.12231M7.00948 9.58803C6.93104 9.51013 6.96394 9.43422 6.96394 9.43422C6.96394 9.43422 7.042 9.40315 7.11807 9.47869L7.00948 9.58803ZM6.65863 9.51345L7.0434 9.12599C7.05048 9.11886 7.06707 9.12117 7.07658 9.13061C7.08371 9.13769 7.08376 9.15191 7.07668 9.15904L6.69191 9.5465C6.68483 9.55363 6.67062 9.55368 6.66111 9.54424C6.65398 9.53716 6.65393 9.52295 6.66101 9.51581L6.65863 9.51345ZM6.70373 9.53935L7.06725 9.17328C7.07434 9.16615 7.08855 9.1661 7.09806 9.17555C7.10757 9.18499 7.10762 9.1992 7.10053 9.20633L6.73465 9.57478C6.72521 9.58429 6.71336 9.58196 6.70385 9.57252C6.69434 9.56307 6.69193 9.55124 6.70137 9.54173L6.70373 9.53935ZM6.56979 9.17028L6.59812 9.14176L6.61713 9.16064L6.63838 9.13925L6.61936 9.12036L6.65005 9.08946L6.67144 9.11071L6.69269 9.08931L6.66892 9.06571L6.69724 9.03718L6.74478 9.08439C6.75429 9.09384 6.75432 9.10331 6.74724 9.11044L6.64338 9.21503C6.6363 9.22217 6.62446 9.22458 6.61733 9.21749L6.56979 9.17028Z" stroke="black" stroke-width="0.0666669"/>
<path d="M6.69208 9.31898L6.7729 9.39924L6.67848 9.49432L6.59766 9.41406L6.69208 9.31898Z" fill="#FFFF00" stroke="black" stroke-width="0.0666669"/>
<path d="M6.69208 9.31898L6.7729 9.39924L6.67848 9.49432L6.59766 9.41406L6.69208 9.31898Z" fill="#FFFF00" stroke="black" stroke-width="0.0666669"/>
<path d="M6.51758 9.36914L6.5459 9.34062L6.56968 9.36422L6.59092 9.34283L6.56715 9.31922L6.59548 9.2907L6.61925 9.3143L6.64049 9.29291L6.61672 9.2693L6.64505 9.24078L6.69259 9.28799C6.7021 9.29743 6.70213 9.30691 6.69505 9.31404L6.59355 9.41625C6.58979 9.42004 6.58468 9.42217 6.57935 9.42219C6.57402 9.42221 6.5689 9.42011 6.56512 9.41635L6.51758 9.36914Z" fill="#FFFF00" stroke="black" stroke-width="0.0666669"/>
<path d="M6.51758 9.36914L6.5459 9.34062L6.56968 9.36422L6.59092 9.34283L6.56715 9.31922L6.59548 9.2907L6.61925 9.3143L6.64049 9.29291L6.61672 9.2693L6.64505 9.24078L6.69259 9.28799C6.7021 9.29743 6.70213 9.30691 6.69505 9.31404L6.59355 9.41625C6.58979 9.42004 6.58468 9.42217 6.57935 9.42219C6.57402 9.42221 6.5689 9.42011 6.56512 9.41635L6.51758 9.36914Z" fill="#FFFF00" stroke="black" stroke-width="0.0666669"/>
<path d="M6.73531 9.22742C6.72104 9.21326 6.74229 9.19186 6.75655 9.20603L6.79458 9.24379L6.77334 9.26519L6.73531 9.22742Z" fill="black"/>
<path d="M6.66304 9.40515C6.64878 9.39099 6.66766 9.37197 6.68192 9.38614L6.71045 9.41446L6.69157 9.43348L6.66304 9.40515Z" fill="black"/>
<path d="M6.66304 9.40515C6.64878 9.39099 6.66766 9.37197 6.68192 9.38614L6.71045 9.41446L6.69157 9.43348L6.66304 9.40515Z" fill="black"/>
<path d="M6.37305 6.47194C6.3764 6.28769 6.50705 6.24414 6.50705 6.24414C6.5104 6.24414 6.6511 6.29104 6.6511 6.47529H6.37305" fill="#FFFF00"/>
<path d="M6.25868 6.24749L6.23523 6.45854H6.37593C6.37593 6.28434 6.50993 6.25754 6.50993 6.25754C6.51328 6.25754 6.64393 6.29439 6.64728 6.45854H6.78798L6.76118 6.24414H6.25868V6.24749ZM6.22518 6.46189H6.79468C6.80473 6.46189 6.81478 6.47194 6.81478 6.48534C6.81478 6.50209 6.80473 6.51214 6.79468 6.51214H6.22518C6.21513 6.51214 6.20508 6.50209 6.20508 6.48534C6.20508 6.47194 6.21513 6.46189 6.22853 6.46189H6.22518Z" fill="#FFFF00" stroke="black" stroke-width="0.0666669"/>
<path d="M6.43315 6.45931C6.43315 6.34876 6.5102 6.31861 6.5102 6.31861C6.5102 6.31861 6.58725 6.35211 6.58725 6.45931H6.43315ZM6.23885 6.15781H6.7849C6.79495 6.15781 6.805 6.17121 6.805 6.18461C6.805 6.19466 6.79495 6.20471 6.7849 6.20471H6.23885C6.2288 6.20471 6.21875 6.19466 6.21875 6.18126C6.21875 6.17121 6.2288 6.16116 6.23885 6.16116V6.15781ZM6.25225 6.20806H6.76815C6.7782 6.20806 6.78825 6.21811 6.78825 6.23151C6.78825 6.24491 6.7782 6.25496 6.76815 6.25496H6.2489C6.2355 6.25496 6.2288 6.24491 6.2288 6.23151C6.2288 6.21811 6.2355 6.20806 6.2489 6.20806H6.25225ZM6.41975 5.85296H6.45995V5.87976H6.4901V5.85296H6.53365V5.88311H6.5638V5.84961H6.604V5.91661C6.604 5.93001 6.5973 5.93671 6.58725 5.93671H6.43985C6.4298 5.93671 6.41975 5.93001 6.41975 5.91996V5.85296ZM6.57385 5.94341L6.5839 6.15781H6.43985L6.4499 5.94006H6.57385" fill="#FFFF00"/>
<path d="M6.57385 5.94341L6.5839 6.15781H6.43985L6.4499 5.94006H6.57385M6.43315 6.45931C6.43315 6.34876 6.5102 6.31861 6.5102 6.31861C6.5102 6.31861 6.58725 6.35211 6.58725 6.45931H6.43315ZM6.23885 6.15781H6.7849C6.79495 6.15781 6.805 6.17121 6.805 6.18461C6.805 6.19466 6.79495 6.20471 6.7849 6.20471H6.23885C6.2288 6.20471 6.21875 6.19466 6.21875 6.18126C6.21875 6.17121 6.2288 6.16116 6.23885 6.16116V6.15781ZM6.25225 6.20806H6.76815C6.7782 6.20806 6.78825 6.21811 6.78825 6.23151C6.78825 6.24491 6.7782 6.25496 6.76815 6.25496H6.2489C6.2355 6.25496 6.2288 6.24491 6.2288 6.23151C6.2288 6.21811 6.2355 6.20806 6.2489 6.20806H6.25225ZM6.41975 5.85296H6.45995V5.87976H6.4901V5.85296H6.53365V5.88311H6.5638V5.84961H6.604V5.91661C6.604 5.93001 6.5973 5.93671 6.58725 5.93671H6.43985C6.4298 5.93671 6.41975 5.93001 6.41975 5.91996V5.85296Z" stroke="black" stroke-width="0.0666669"/>
<path d="M6.39963 6.04297V6.15687H6.26562V6.04297H6.39963Z" fill="#FFFF00" stroke="black" stroke-width="0.0666669"/>
<path d="M6.39963 6.04297V6.15687H6.26562V6.04297H6.39963Z" fill="#FFFF00" stroke="black" stroke-width="0.0666669"/>
<path d="M6.24219 5.95703H6.28239V5.99053H6.31254V5.95703H6.35274V5.99053H6.38289V5.95703H6.42309V6.02403C6.42309 6.03743 6.41639 6.04413 6.40634 6.04413H6.26229C6.25696 6.04413 6.25184 6.04201 6.24807 6.03824C6.24431 6.03448 6.24219 6.02936 6.24219 6.02403V5.95703Z" fill="#FFFF00" stroke="black" stroke-width="0.0666669"/>
<path d="M6.24219 5.95703H6.28239V5.99053H6.31254V5.95703H6.35274V5.99053H6.38289V5.95703H6.42309V6.02403C6.42309 6.03743 6.41639 6.04413 6.40634 6.04413H6.26229C6.25696 6.04413 6.25184 6.04201 6.24807 6.03824C6.24431 6.03448 6.24219 6.02936 6.24219 6.02403V5.95703Z" fill="#FFFF00" stroke="black" stroke-width="0.0666669"/>
<path d="M6.49609 6.01117C6.49609 5.99107 6.52624 5.99107 6.52624 6.01117V6.06477H6.49609V6.01117Z" fill="black"/>
<path d="M6.32031 6.08343C6.32031 6.06333 6.34711 6.06333 6.34711 6.08343V6.12363H6.32031V6.08343Z" fill="black"/>
<path d="M6.32031 6.08343C6.32031 6.06333 6.34711 6.06333 6.34711 6.08343V6.12363H6.32031V6.08343Z" fill="black"/>
<path d="M9.70312 6.47194C9.69977 6.28769 9.56912 6.24414 9.56912 6.24414C9.56577 6.24414 9.42507 6.29104 9.42507 6.47529H9.70312" fill="#FFFF00"/>
<path d="M9.81749 6.24749L9.84094 6.45854H9.70024C9.70024 6.28434 9.56624 6.25754 9.56624 6.25754C9.56289 6.25754 9.43224 6.29439 9.42889 6.45854H9.28819L9.31499 6.24414H9.81749V6.24749ZM9.85099 6.46189H9.28149C9.27144 6.46189 9.26139 6.47194 9.26139 6.48534C9.26139 6.50209 9.27144 6.51214 9.28149 6.51214H9.85099C9.86104 6.51214 9.87109 6.50209 9.87109 6.48534C9.87109 6.47194 9.86104 6.46189 9.84764 6.46189H9.85099Z" fill="#FFFF00" stroke="black" stroke-width="0.0666669"/>
<path d="M9.64302 6.45931C9.64302 6.34876 9.56597 6.31861 9.56597 6.31861C9.56597 6.31861 9.48892 6.35211 9.48892 6.45931H9.64302ZM9.83732 6.15781H9.29127C9.28122 6.15781 9.27117 6.17121 9.27117 6.18461C9.27117 6.19466 9.28122 6.20471 9.29127 6.20471H9.83732C9.84737 6.20471 9.85742 6.19466 9.85742 6.18126C9.85742 6.17121 9.84737 6.16116 9.83732 6.16116V6.15781ZM9.82392 6.20806H9.30802C9.29797 6.20806 9.28792 6.21811 9.28792 6.23151C9.28792 6.24491 9.29797 6.25496 9.30802 6.25496H9.82727C9.84067 6.25496 9.84737 6.24491 9.84737 6.23151C9.84737 6.21811 9.84067 6.20806 9.82727 6.20806H9.82392ZM9.65642 5.85296H9.61622V5.87976H9.58607V5.85296H9.54252V5.88311H9.51237V5.84961H9.47217V5.91661C9.47217 5.93001 9.47887 5.93671 9.48892 5.93671H9.63632C9.64637 5.93671 9.65642 5.93001 9.65642 5.91996V5.85296ZM9.50232 5.94341L9.49227 6.15781H9.63632L9.62627 5.94006H9.50232" fill="#FFFF00"/>
<path d="M9.50232 5.94341L9.49227 6.15781H9.63632L9.62627 5.94006H9.50232M9.64302 6.45931C9.64302 6.34876 9.56597 6.31861 9.56597 6.31861C9.56597 6.31861 9.48892 6.35211 9.48892 6.45931H9.64302ZM9.83732 6.15781H9.29127C9.28122 6.15781 9.27117 6.17121 9.27117 6.18461C9.27117 6.19466 9.28122 6.20471 9.29127 6.20471H9.83732C9.84737 6.20471 9.85742 6.19466 9.85742 6.18126C9.85742 6.17121 9.84737 6.16116 9.83732 6.16116V6.15781ZM9.82392 6.20806H9.30802C9.29797 6.20806 9.28792 6.21811 9.28792 6.23151C9.28792 6.24491 9.29797 6.25496 9.30802 6.25496H9.82727C9.84067 6.25496 9.84737 6.24491 9.84737 6.23151C9.84737 6.21811 9.84067 6.20806 9.82727 6.20806H9.82392ZM9.65642 5.85296H9.61622V5.87976H9.58607V5.85296H9.54252V5.88311H9.51237V5.84961H9.47217V5.91661C9.47217 5.93001 9.47887 5.93671 9.48892 5.93671H9.63632C9.64637 5.93671 9.65642 5.93001 9.65642 5.91996V5.85296Z" stroke="black" stroke-width="0.0666669"/>
<path d="M9.67655 6.04297V6.15687H9.81055V6.04297H9.67655Z" fill="#FFFF00" stroke="black" stroke-width="0.0666669"/>
<path d="M9.67655 6.04297V6.15687H9.81055V6.04297H9.67655Z" fill="#FFFF00" stroke="black" stroke-width="0.0666669"/>
<path d="M9.83398 5.95703H9.79378V5.99053H9.76363V5.95703H9.72343V5.99053H9.69328V5.95703H9.65308V6.02403C9.65308 6.03743 9.65978 6.04413 9.66983 6.04413H9.81388C9.81922 6.04413 9.82433 6.04201 9.8281 6.03824C9.83187 6.03448 9.83398 6.02936 9.83398 6.02403V5.95703Z" fill="#FFFF00" stroke="black" stroke-width="0.0666669"/>
<path d="M9.83398 5.95703H9.79378V5.99053H9.76363V5.95703H9.72343V5.99053H9.69328V5.95703H9.65308V6.02403C9.65308 6.03743 9.65978 6.04413 9.66983 6.04413H9.81388C9.81922 6.04413 9.82433 6.04201 9.8281 6.03824C9.83187 6.03448 9.83398 6.02936 9.83398 6.02403V5.95703Z" fill="#FFFF00" stroke="black" stroke-width="0.0666669"/>
<path d="M9.58008 6.01117C9.58008 5.99107 9.54993 5.99107 9.54993 6.01117V6.06477H9.58008V6.01117Z" fill="black"/>
<path d="M9.75781 6.08343C9.75781 6.06333 9.73101 6.06333 9.73101 6.08343V6.12363H9.75781V6.08343Z" fill="black"/>
<path d="M9.75781 6.08343C9.75781 6.06333 9.73101 6.06333 9.73101 6.08343V6.12363H9.75781V6.08343Z" fill="black"/>
<path d="M9.70312 6.47194C9.69977 6.28769 9.56912 6.24414 9.56912 6.24414C9.56577 6.24414 9.42507 6.29104 9.42507 6.47529H9.70312" fill="#FFFF00"/>
<path d="M9.81749 6.24749L9.84094 6.45854H9.70024C9.70024 6.28434 9.56624 6.25754 9.56624 6.25754C9.56289 6.25754 9.43224 6.29439 9.42889 6.45854H9.28819L9.31499 6.24414H9.81749V6.24749ZM9.85099 6.46189H9.28149C9.27144 6.46189 9.26139 6.47194 9.26139 6.48534C9.26139 6.50209 9.27144 6.51214 9.28149 6.51214H9.85099C9.86104 6.51214 9.87109 6.50209 9.87109 6.48534C9.87109 6.47194 9.86104 6.46189 9.84764 6.46189H9.85099Z" fill="#FFFF00" stroke="black" stroke-width="0.0666669"/>
<path d="M9.64302 6.45931C9.64302 6.34876 9.56597 6.31861 9.56597 6.31861C9.56597 6.31861 9.48892 6.35211 9.48892 6.45931H9.64302ZM9.83732 6.15781H9.29127C9.28122 6.15781 9.27117 6.17121 9.27117 6.18461C9.27117 6.19466 9.28122 6.20471 9.29127 6.20471H9.83732C9.84737 6.20471 9.85742 6.19466 9.85742 6.18126C9.85742 6.17121 9.84737 6.16116 9.83732 6.16116V6.15781ZM9.82392 6.20806H9.30802C9.29797 6.20806 9.28792 6.21811 9.28792 6.23151C9.28792 6.24491 9.29797 6.25496 9.30802 6.25496H9.82727C9.84067 6.25496 9.84737 6.24491 9.84737 6.23151C9.84737 6.21811 9.84067 6.20806 9.82727 6.20806H9.82392ZM9.65642 5.85296H9.61622V5.87976H9.58607V5.85296H9.54252V5.88311H9.51237V5.84961H9.47217V5.91661C9.47217 5.93001 9.47887 5.93671 9.48892 5.93671H9.63632C9.64637 5.93671 9.65642 5.93001 9.65642 5.91996V5.85296ZM9.50232 5.94341L9.49227 6.15781H9.63632L9.62627 5.94006H9.50232" fill="#FFFF00"/>
<path d="M9.50232 5.94341L9.49227 6.15781H9.63632L9.62627 5.94006H9.50232M9.64302 6.45931C9.64302 6.34876 9.56597 6.31861 9.56597 6.31861C9.56597 6.31861 9.48892 6.35211 9.48892 6.45931H9.64302ZM9.83732 6.15781H9.29127C9.28122 6.15781 9.27117 6.17121 9.27117 6.18461C9.27117 6.19466 9.28122 6.20471 9.29127 6.20471H9.83732C9.84737 6.20471 9.85742 6.19466 9.85742 6.18126C9.85742 6.17121 9.84737 6.16116 9.83732 6.16116V6.15781ZM9.82392 6.20806H9.30802C9.29797 6.20806 9.28792 6.21811 9.28792 6.23151C9.28792 6.24491 9.29797 6.25496 9.30802 6.25496H9.82727C9.84067 6.25496 9.84737 6.24491 9.84737 6.23151C9.84737 6.21811 9.84067 6.20806 9.82727 6.20806H9.82392ZM9.65642 5.85296H9.61622V5.87976H9.58607V5.85296H9.54252V5.88311H9.51237V5.84961H9.47217V5.91661C9.47217 5.93001 9.47887 5.93671 9.48892 5.93671H9.63632C9.64637 5.93671 9.65642 5.93001 9.65642 5.91996V5.85296Z" stroke="black" stroke-width="0.0666669"/>
<path d="M9.67655 6.04297V6.15687H9.81055V6.04297H9.67655Z" fill="#FFFF00" stroke="black" stroke-width="0.0666669"/>
<path d="M9.67655 6.04297V6.15687H9.81055V6.04297H9.67655Z" fill="#FFFF00" stroke="black" stroke-width="0.0666669"/>
<path d="M9.83398 5.95703H9.79378V5.99053H9.76363V5.95703H9.72343V5.99053H9.69328V5.95703H9.65308V6.02403C9.65308 6.03743 9.65978 6.04413 9.66983 6.04413H9.81388C9.81922 6.04413 9.82433 6.04201 9.8281 6.03824C9.83187 6.03448 9.83398 6.02936 9.83398 6.02403V5.95703Z" fill="#FFFF00" stroke="black" stroke-width="0.0666669"/>
<path d="M9.83398 5.95703H9.79378V5.99053H9.76363V5.95703H9.72343V5.99053H9.69328V5.95703H9.65308V6.02403C9.65308 6.03743 9.65978 6.04413 9.66983 6.04413H9.81388C9.81922 6.04413 9.82433 6.04201 9.8281 6.03824C9.83187 6.03448 9.83398 6.02936 9.83398 6.02403V5.95703Z" fill="#FFFF00" stroke="black" stroke-width="0.0666669"/>
<path d="M9.58008 6.01117C9.58008 5.99107 9.54993 5.99107 9.54993 6.01117V6.06477H9.58008V6.01117Z" fill="black"/>
<path d="M9.75781 6.08343C9.75781 6.06333 9.73101 6.06333 9.73101 6.08343V6.12363H9.75781V6.08343Z" fill="black"/>
<path d="M9.75781 6.08343C9.75781 6.06333 9.73101 6.06333 9.73101 6.08343V6.12363H9.75781V6.08343Z" fill="black"/>
<path d="M9.10008 9.64098C9.22846 9.50878 9.1673 9.38539 9.1673 9.38539C9.16494 9.38301 9.03252 9.31622 8.90178 9.44605L9.0977 9.64335" fill="#FFFF00"/>
<path d="M9.33876 9.56394L9.20553 9.72929L9.10639 9.62945C9.22999 9.5067 9.15459 9.39274 9.15459 9.39274C9.15223 9.39036 9.03402 9.32362 8.91518 9.43691L8.81604 9.33707L8.98706 9.20502L9.34114 9.56158L9.33876 9.56394ZM9.21023 9.73878L8.80894 9.33468C8.80186 9.32755 8.78765 9.3275 8.77814 9.33694C8.76626 9.34874 8.76621 9.36296 8.77329 9.37009L9.17458 9.77419C9.18166 9.78132 9.19587 9.78137 9.20776 9.76957C9.21727 9.76013 9.21732 9.74591 9.20787 9.7364L9.21023 9.73878Z" fill="#FFFF00" stroke="black" stroke-width="0.0666669"/>
<path d="M9.06669 9.58803C9.14513 9.51013 9.11223 9.43422 9.11223 9.43422C9.11223 9.43422 9.03417 9.40315 8.95811 9.47869L9.06669 9.58803ZM9.41754 9.51345L9.03277 9.12599C9.02569 9.11886 9.0091 9.12117 8.99959 9.13061C8.99246 9.13769 8.99241 9.15191 8.99949 9.15904L9.38426 9.5465C9.39134 9.55363 9.40555 9.55368 9.41506 9.54424C9.42219 9.53716 9.42224 9.52295 9.41516 9.51581L9.41754 9.51345ZM9.37244 9.53935L9.00892 9.17328C9.00184 9.16615 8.98762 9.1661 8.97811 9.17555C8.96861 9.18499 8.96856 9.1992 8.97564 9.20633L9.34152 9.57478C9.35096 9.58429 9.36282 9.58196 9.37232 9.57252C9.38183 9.56307 9.38424 9.55124 9.3748 9.54173L9.37244 9.53935ZM9.50638 9.17028L9.47806 9.14176L9.45904 9.16064L9.43779 9.13925L9.45681 9.12036L9.42612 9.08946L9.40473 9.11071L9.38349 9.08931L9.40726 9.06571L9.37893 9.03718L9.33139 9.08439C9.32188 9.09384 9.32185 9.10331 9.32893 9.11044L9.43279 9.21503C9.43987 9.22217 9.45171 9.22458 9.45884 9.21749L9.50638 9.17028ZM9.33362 9.12467L9.1744 9.26862L9.27591 9.37083L9.42333 9.21026L9.33599 9.12231" fill="#FFFF00"/>
<path d="M9.33362 9.12467L9.1744 9.26862L9.27591 9.37083L9.42333 9.21026L9.33599 9.12231M9.06669 9.58803C9.14513 9.51013 9.11223 9.43422 9.11223 9.43422C9.11223 9.43422 9.03417 9.40315 8.95811 9.47869L9.06669 9.58803ZM9.41754 9.51345L9.03277 9.12599C9.02569 9.11886 9.0091 9.12117 8.99959 9.13061C8.99246 9.13769 8.99241 9.15191 8.99949 9.15904L9.38426 9.5465C9.39134 9.55363 9.40555 9.55368 9.41506 9.54424C9.42219 9.53716 9.42224 9.52295 9.41516 9.51581L9.41754 9.51345ZM9.37244 9.53935L9.00892 9.17328C9.00184 9.16615 8.98762 9.1661 8.97811 9.17555C8.96861 9.18499 8.96856 9.1992 8.97564 9.20633L9.34152 9.57478C9.35096 9.58429 9.36282 9.58196 9.37232 9.57252C9.38183 9.56307 9.38424 9.55124 9.3748 9.54173L9.37244 9.53935ZM9.50638 9.17028L9.47806 9.14176L9.45904 9.16064L9.43779 9.13925L9.45681 9.12036L9.42612 9.08946L9.40473 9.11071L9.38349 9.08931L9.40726 9.06571L9.37893 9.03718L9.33139 9.08439C9.32188 9.09384 9.32185 9.10331 9.32893 9.11044L9.43279 9.21503C9.43987 9.22217 9.45171 9.22458 9.45884 9.21749L9.50638 9.17028Z" stroke="black" stroke-width="0.0666669"/>
<path d="M9.38409 9.31898L9.30327 9.39924L9.3977 9.49432L9.47852 9.41406L9.38409 9.31898Z" fill="#FFFF00" stroke="black" stroke-width="0.0666669"/>
<path d="M9.38409 9.31898L9.30327 9.39924L9.3977 9.49432L9.47852 9.41406L9.38409 9.31898Z" fill="#FFFF00" stroke="black" stroke-width="0.0666669"/>
<path d="M9.55859 9.36914L9.53027 9.34062L9.5065 9.36422L9.48525 9.34283L9.50902 9.31922L9.4807 9.2907L9.45693 9.3143L9.43568 9.29291L9.45945 9.2693L9.43113 9.24078L9.38358 9.28799C9.37408 9.29743 9.37404 9.30691 9.38112 9.31404L9.48263 9.41625C9.48638 9.42004 9.49149 9.42217 9.49682 9.42219C9.50215 9.42221 9.50727 9.42011 9.51105 9.41635L9.55859 9.36914Z" fill="#FFFF00" stroke="black" stroke-width="0.0666669"/>
<path d="M9.55859 9.36914L9.53027 9.34062L9.5065 9.36422L9.48525 9.34283L9.50902 9.31922L9.4807 9.2907L9.45693 9.3143L9.43568 9.29291L9.45945 9.2693L9.43113 9.24078L9.38358 9.28799C9.37408 9.29743 9.37404 9.30691 9.38112 9.31404L9.48263 9.41625C9.48638 9.42004 9.49149 9.42217 9.49682 9.42219C9.50215 9.42221 9.50727 9.42011 9.51105 9.41635L9.55859 9.36914Z" fill="#FFFF00" stroke="black" stroke-width="0.0666669"/>
<path d="M9.34087 9.22742C9.35513 9.21326 9.33388 9.19186 9.31962 9.20603L9.28159 9.24379L9.30283 9.26519L9.34087 9.22742Z" fill="black"/>
<path d="M9.41313 9.40515C9.42739 9.39099 9.40851 9.37197 9.39425 9.38614L9.36572 9.41446L9.38461 9.43348L9.41313 9.40515Z" fill="black"/>
<path d="M9.41313 9.40515C9.42739 9.39099 9.40851 9.37197 9.39425 9.38614L9.36572 9.41446L9.38461 9.43348L9.41313 9.40515Z" fill="black"/>
<path d="M7.79298 8.08055C7.79237 8.15126 7.81873 8.21954 7.86668 8.2715C7.88905 8.29652 7.9164 8.31659 7.94697 8.33043C7.97754 8.34428 8.01067 8.35159 8.04423 8.3519C8.11458 8.3519 8.17823 8.3184 8.22178 8.2715C8.26973 8.21954 8.29609 8.15126 8.29548 8.08055V7.71875H7.79298V8.08055Z" fill="#003399"/>
<path d="M7.90963 7.90714C7.93738 7.90714 7.95988 7.88464 7.95988 7.85689C7.95988 7.82914 7.93738 7.80664 7.90963 7.80664C7.88187 7.80664 7.85938 7.82914 7.85938 7.85689C7.85938 7.88464 7.88187 7.90714 7.90963 7.90714Z" fill="white"/>
<path d="M8.18697 7.90714C8.21472 7.90714 8.23722 7.88464 8.23722 7.85689C8.23722 7.82914 8.21472 7.80664 8.18697 7.80664C8.15922 7.80664 8.13672 7.82914 8.13672 7.85689C8.13672 7.88464 8.15922 7.90714 8.18697 7.90714Z" fill="white"/>
<path d="M8.04634 8.03995C8.0741 8.03995 8.09659 8.01746 8.09659 7.9897C8.09659 7.96195 8.0741 7.93945 8.04634 7.93945C8.01859 7.93945 7.99609 7.96195 7.99609 7.9897C7.99609 8.01746 8.01859 8.03995 8.04634 8.03995Z" fill="white"/>
<path d="M7.90963 8.18058C7.93738 8.18058 7.95988 8.15808 7.95988 8.13033C7.95988 8.10258 7.93738 8.08008 7.90963 8.08008C7.88187 8.08008 7.85938 8.10258 7.85938 8.13033C7.85938 8.15808 7.88187 8.18058 7.90963 8.18058Z" fill="white"/>
<path d="M8.18697 8.18058C8.21472 8.18058 8.23722 8.15808 8.23722 8.13033C8.23722 8.10258 8.21472 8.08008 8.18697 8.08008C8.15922 8.08008 8.13672 8.10258 8.13672 8.13033C8.13672 8.15808 8.15922 8.18058 8.18697 8.18058Z" fill="white"/>
<path d="M7.79298 8.08055C7.79237 8.15126 7.81873 8.21954 7.86668 8.2715C7.88905 8.29652 7.9164 8.31659 7.94697 8.33043C7.97754 8.34428 8.01067 8.35159 8.04423 8.3519C8.11458 8.3519 8.17823 8.3184 8.22178 8.2715C8.26973 8.21954 8.29609 8.15126 8.29548 8.08055V7.71875H7.79298V8.08055Z" fill="#003399"/>
<path d="M7.90963 7.90714C7.93738 7.90714 7.95988 7.88464 7.95988 7.85689C7.95988 7.82914 7.93738 7.80664 7.90963 7.80664C7.88187 7.80664 7.85938 7.82914 7.85938 7.85689C7.85938 7.88464 7.88187 7.90714 7.90963 7.90714Z" fill="white"/>
<path d="M8.18697 7.90714C8.21472 7.90714 8.23722 7.88464 8.23722 7.85689C8.23722 7.82914 8.21472 7.80664 8.18697 7.80664C8.15922 7.80664 8.13672 7.82914 8.13672 7.85689C8.13672 7.88464 8.15922 7.90714 8.18697 7.90714Z" fill="white"/>
<path d="M8.04634 8.03995C8.0741 8.03995 8.09659 8.01746 8.09659 7.9897C8.09659 7.96195 8.0741 7.93945 8.04634 7.93945C8.01859 7.93945 7.99609 7.96195 7.99609 7.9897C7.99609 8.01746 8.01859 8.03995 8.04634 8.03995Z" fill="white"/>
<path d="M7.90963 8.18058C7.93738 8.18058 7.95988 8.15808 7.95988 8.13033C7.95988 8.10258 7.93738 8.08008 7.90963 8.08008C7.88187 8.08008 7.85938 8.10258 7.85938 8.13033C7.85938 8.15808 7.88187 8.18058 7.90963 8.18058Z" fill="white"/>
<path d="M8.18697 8.18058C8.21472 8.18058 8.23722 8.15808 8.23722 8.13033C8.23722 8.10258 8.21472 8.08008 8.18697 8.08008C8.15922 8.08008 8.13672 8.10258 8.13672 8.13033C8.13672 8.15808 8.15922 8.18058 8.18697 8.18058Z" fill="white"/>
<path d="M7.79298 8.08055C7.79237 8.15126 7.81873 8.21954 7.86668 8.2715C7.88905 8.29652 7.9164 8.31659 7.94697 8.33043C7.97754 8.34428 8.01067 8.35159 8.04423 8.3519C8.11458 8.3519 8.17823 8.3184 8.22178 8.2715C8.26973 8.21954 8.29609 8.15126 8.29548 8.08055V7.71875H7.79298V8.08055Z" fill="#003399"/>
<path d="M7.90963 7.90714C7.93738 7.90714 7.95988 7.88464 7.95988 7.85689C7.95988 7.82914 7.93738 7.80664 7.90963 7.80664C7.88187 7.80664 7.85938 7.82914 7.85938 7.85689C7.85938 7.88464 7.88187 7.90714 7.90963 7.90714Z" fill="white"/>
<path d="M8.18697 7.90714C8.21472 7.90714 8.23722 7.88464 8.23722 7.85689C8.23722 7.82914 8.21472 7.80664 8.18697 7.80664C8.15922 7.80664 8.13672 7.82914 8.13672 7.85689C8.13672 7.88464 8.15922 7.90714 8.18697 7.90714Z" fill="white"/>
<path d="M8.04634 8.03995C8.0741 8.03995 8.09659 8.01746 8.09659 7.9897C8.09659 7.96195 8.0741 7.93945 8.04634 7.93945C8.01859 7.93945 7.99609 7.96195 7.99609 7.9897C7.99609 8.01746 8.01859 8.03995 8.04634 8.03995Z" fill="white"/>
<path d="M7.90963 8.18058C7.93738 8.18058 7.95988 8.15808 7.95988 8.13033C7.95988 8.10258 7.93738 8.08008 7.90963 8.08008C7.88187 8.08008 7.85938 8.10258 7.85938 8.13033C7.85938 8.15808 7.88187 8.18058 7.90963 8.18058Z" fill="white"/>
<path d="M8.18697 8.18058C8.21472 8.18058 8.23722 8.15808 8.23722 8.13033C8.23722 8.10258 8.21472 8.08008 8.18697 8.08008C8.15922 8.08008 8.13672 8.10258 8.13672 8.13033C8.13672 8.15808 8.15922 8.18058 8.18697 8.18058Z" fill="white"/>
<path d="M7.79298 8.08055C7.79237 8.15126 7.81873 8.21954 7.86668 8.2715C7.88905 8.29652 7.9164 8.31659 7.94697 8.33043C7.97754 8.34428 8.01067 8.35159 8.04423 8.3519C8.11458 8.3519 8.17823 8.3184 8.22178 8.2715C8.26973 8.21954 8.29609 8.15126 8.29548 8.08055V7.71875H7.79298V8.08055Z" fill="#003399"/>
<path d="M7.90963 7.90714C7.93738 7.90714 7.95988 7.88464 7.95988 7.85689C7.95988 7.82914 7.93738 7.80664 7.90963 7.80664C7.88187 7.80664 7.85938 7.82914 7.85938 7.85689C7.85938 7.88464 7.88187 7.90714 7.90963 7.90714Z" fill="white"/>
<path d="M8.18697 7.90714C8.21472 7.90714 8.23722 7.88464 8.23722 7.85689C8.23722 7.82914 8.21472 7.80664 8.18697 7.80664C8.15922 7.80664 8.13672 7.82914 8.13672 7.85689C8.13672 7.88464 8.15922 7.90714 8.18697 7.90714Z" fill="white"/>
<path d="M8.04634 8.03995C8.0741 8.03995 8.09659 8.01746 8.09659 7.9897C8.09659 7.96195 8.0741 7.93945 8.04634 7.93945C8.01859 7.93945 7.99609 7.96195 7.99609 7.9897C7.99609 8.01746 8.01859 8.03995 8.04634 8.03995Z" fill="white"/>
<path d="M7.90963 8.18058C7.93738 8.18058 7.95988 8.15808 7.95988 8.13033C7.95988 8.10258 7.93738 8.08008 7.90963 8.08008C7.88187 8.08008 7.85938 8.10258 7.85938 8.13033C7.85938 8.15808 7.88187 8.18058 7.90963 8.18058Z" fill="white"/>
<path d="M8.18697 8.18058C8.21472 8.18058 8.23722 8.15808 8.23722 8.13033C8.23722 8.10258 8.21472 8.08008 8.18697 8.08008C8.15922 8.08008 8.13672 8.10258 8.13672 8.13033C8.13672 8.15808 8.15922 8.18058 8.18697 8.18058Z" fill="white"/>
<path d="M7.79298 8.08055C7.79237 8.15126 7.81873 8.21954 7.86668 8.2715C7.88905 8.29652 7.9164 8.31659 7.94697 8.33043C7.97754 8.34428 8.01067 8.35159 8.04423 8.3519C8.11458 8.3519 8.17823 8.3184 8.22178 8.2715C8.26973 8.21954 8.29609 8.15126 8.29548 8.08055V7.71875H7.79298V8.08055Z" fill="#003399"/>
<path d="M7.90963 7.90714C7.93738 7.90714 7.95988 7.88464 7.95988 7.85689C7.95988 7.82914 7.93738 7.80664 7.90963 7.80664C7.88187 7.80664 7.85938 7.82914 7.85938 7.85689C7.85938 7.88464 7.88187 7.90714 7.90963 7.90714Z" fill="white"/>
<path d="M8.18697 7.90714C8.21472 7.90714 8.23722 7.88464 8.23722 7.85689C8.23722 7.82914 8.21472 7.80664 8.18697 7.80664C8.15922 7.80664 8.13672 7.82914 8.13672 7.85689C8.13672 7.88464 8.15922 7.90714 8.18697 7.90714Z" fill="white"/>
<path d="M8.04634 8.03995C8.0741 8.03995 8.09659 8.01746 8.09659 7.9897C8.09659 7.96195 8.0741 7.93945 8.04634 7.93945C8.01859 7.93945 7.99609 7.96195 7.99609 7.9897C7.99609 8.01746 8.01859 8.03995 8.04634 8.03995Z" fill="white"/>
<path d="M7.90963 8.18058C7.93738 8.18058 7.95988 8.15808 7.95988 8.13033C7.95988 8.10258 7.93738 8.08008 7.90963 8.08008C7.88187 8.08008 7.85938 8.10258 7.85938 8.13033C7.85938 8.15808 7.88187 8.18058 7.90963 8.18058Z" fill="white"/>
<path d="M8.18697 8.18058C8.21472 8.18058 8.23722 8.15808 8.23722 8.13033C8.23722 8.10258 8.21472 8.08008 8.18697 8.08008C8.15922 8.08008 8.13672 8.10258 8.13672 8.13033C8.13672 8.15808 8.15922 8.18058 8.18697 8.18058Z" fill="white"/>
</g>
<defs>
<clipPath id="clip0_2872_1410">
<rect width="20.1" height="15.075" fill="white" transform="translate(0 0.462891)"/>
</clipPath>
</defs>
</svg>
