<svg width="56" height="56" viewBox="0 0 56 56" fill="none" xmlns="http://www.w3.org/2000/svg">
<path d="M21.3701 25.3624C21.1368 25.3391 20.8568 25.3391 20.6001 25.3624C17.9219 25.2715 15.3843 24.1417 13.5246 22.2123C11.6649 20.2829 10.6292 17.7055 10.6368 15.0257C10.6368 9.30908 15.2568 4.66575 20.9968 4.66575C23.7413 4.61624 26.3931 5.65903 28.3688 7.56471C30.3445 9.47039 31.4823 12.0829 31.5318 14.8274C31.5813 17.572 30.5385 20.2238 28.6328 22.1995C26.7271 24.1752 24.1146 25.3129 21.3701 25.3624Z" stroke="#F2C94C" stroke-width="3.625" stroke-linecap="round" stroke-linejoin="round"/>
<path opacity="0.4" d="M38.2916 9.33203C42.8183 9.33203 46.4583 12.9954 46.4583 17.4987C46.4583 21.9087 42.9583 25.502 38.5949 25.6654C38.3934 25.642 38.1898 25.642 37.9883 25.6654" stroke="#F2C94C" stroke-width="3.625" stroke-linecap="round" stroke-linejoin="round"/>
<path d="M9.70375 33.972C4.05708 37.752 4.05708 43.912 9.70375 47.6687C16.1204 51.962 26.6438 51.962 33.0604 47.6687C38.7071 43.8887 38.7071 37.7287 33.0604 33.972C26.6671 29.702 16.1438 29.702 9.70375 33.972Z" stroke="#F2C94C" stroke-width="3.625" stroke-linecap="round" stroke-linejoin="round"/>
<path opacity="0.4" d="M42.793 46.668C44.473 46.318 46.0596 45.6413 47.3663 44.638C51.0063 41.908 51.0063 37.4046 47.3663 34.6746C46.083 33.6946 44.5196 33.0413 42.863 32.668" stroke="#F2C94C" stroke-width="3.625" stroke-linecap="round" stroke-linejoin="round"/>
</svg>
