<svg width="56" height="56" viewBox="0 0 56 56" fill="none" xmlns="http://www.w3.org/2000/svg">
<path d="M26.8318 48.9994C29.7428 48.9994 32.6253 48.426 35.3146 47.312C38.004 46.198 40.4477 44.5652 42.506 42.5069C44.5644 40.4485 46.1972 38.0049 47.3112 35.3155C48.4251 32.6261 48.9985 29.7437 48.9985 26.8327C48.9985 23.9217 48.4251 21.0393 47.3112 18.3499C46.1972 15.6605 44.5644 13.2168 42.506 11.1585C40.4477 9.10012 38.004 7.46733 35.3146 6.35335C32.6253 5.23937 29.7428 4.66602 26.8318 4.66602C20.9529 4.66602 15.3147 7.00143 11.1576 11.1585C7.00057 15.3155 4.66516 20.9537 4.66516 26.8327C4.66516 32.7116 7.00057 38.3498 11.1576 42.5069C15.3147 46.6639 20.9529 48.9994 26.8318 48.9994Z" stroke="#F2C94C" stroke-width="3.48649" stroke-linecap="round" stroke-linejoin="round"/>
<path opacity="0.4" d="M51.3318 51.3327L46.6652 46.666" stroke="#F2C94C" stroke-width="3.48649" stroke-linecap="round" stroke-linejoin="round"/>
</svg>
