<svg width="25" height="25" viewBox="0 0 25 25" fill="none" xmlns="http://www.w3.org/2000/svg">
<path d="M12.9082 15.7266C13.7039 15.7266 14.4669 15.4105 15.0295 14.8479C15.5921 14.2853 15.9082 13.5222 15.9082 12.7266C15.9082 11.9309 15.5921 11.1679 15.0295 10.6052C14.4669 10.0426 13.7039 9.72656 12.9082 9.72656C12.1126 9.72656 11.3495 10.0426 10.7869 10.6052C10.2243 11.1679 9.9082 11.9309 9.9082 12.7266C9.9082 13.5222 10.2243 14.2853 10.7869 14.8479C11.3495 15.4105 12.1126 15.7266 12.9082 15.7266Z" stroke="white" stroke-width="1.5" stroke-miterlimit="10" stroke-linecap="round" stroke-linejoin="round"/>
<path d="M2.9082 13.608V11.848C2.9082 10.808 3.7582 9.94796 4.8082 9.94796C6.6182 9.94796 7.3582 8.66796 6.4482 7.09796C5.9282 6.19796 6.2382 5.02796 7.1482 4.50796L8.8782 3.51796C9.6682 3.04796 10.6882 3.32796 11.1582 4.11796L11.2682 4.30796C12.1682 5.87796 13.6482 5.87796 14.5582 4.30796L14.6682 4.11796C15.1382 3.32796 16.1582 3.04796 16.9482 3.51796L18.6782 4.50796C19.5882 5.02796 19.8982 6.19796 19.3782 7.09796C18.4682 8.66796 19.2082 9.94796 21.0182 9.94796C22.0582 9.94796 22.9182 10.798 22.9182 11.848V13.608C22.9182 14.648 22.0682 15.508 21.0182 15.508C19.2082 15.508 18.4682 16.788 19.3782 18.358C19.8982 19.268 19.5882 20.428 18.6782 20.948L16.9482 21.938C16.1582 22.408 15.1382 22.128 14.6682 21.338L14.5582 21.148C13.6582 19.578 12.1782 19.578 11.2682 21.148L11.1582 21.338C10.6882 22.128 9.6682 22.408 8.8782 21.938L7.1482 20.948C6.7123 20.697 6.39378 20.2833 6.26255 19.7977C6.13131 19.3122 6.19808 18.7944 6.4482 18.358C7.3582 16.788 6.6182 15.508 4.8082 15.508C3.7582 15.508 2.9082 14.648 2.9082 13.608Z" stroke="white" stroke-width="1.5" stroke-miterlimit="10" stroke-linecap="round" stroke-linejoin="round"/>
</svg>
