<svg width="56" height="56" viewBox="0 0 56 56" fill="none" xmlns="http://www.w3.org/2000/svg">
<path d="M28.3242 17.7812H16.0275C11.6875 17.7812 10.7075 19.9513 10.1708 22.6346L8.1875 32.0846H36.1875L34.2042 22.6346C33.6208 19.9513 32.6642 17.7812 28.3242 17.7812Z" stroke="#F2C94C" stroke-width="4.1875" stroke-linecap="round" stroke-linejoin="round"/>
<path d="M8.16707 26.832H6.41707M37.9171 26.832H36.1671M39.6391 47.51C39.8257 49.5634 38.1924 51.3367 36.0924 51.3367H32.8024C30.9124 51.3367 30.6557 50.52 30.3057 49.54L29.9557 48.49C29.4657 47.0667 29.1391 46.0867 26.6191 46.0867H17.6591C15.1391 46.0867 14.7657 47.1834 14.3224 48.49L13.9724 49.54C13.6457 50.5434 13.3891 51.3367 11.4757 51.3367H8.18574C6.08574 51.3367 4.42907 49.5634 4.63907 47.51L5.61907 36.8467C5.87574 34.21 6.36574 32.0634 10.9624 32.0634H33.2924C37.8891 32.0634 38.3791 34.21 38.6357 36.8467L39.6391 47.51Z" stroke="#F2C94C" stroke-width="4.1875" stroke-linecap="round" stroke-linejoin="round"/>
<path opacity="0.4" d="M11.668 39.0846H16.918M27.418 39.0846H32.668M43.6603 20.3946C44.3136 18.878 44.0803 16.8246 42.867 15.028C41.677 13.2313 39.857 12.228 38.2003 12.2513M50.9146 22.7046C51.8946 19.1813 51.1946 14.8646 48.698 11.1313C46.2013 7.39797 42.468 5.1113 38.828 4.66797" stroke="#F2C94C" stroke-width="4.1875" stroke-linecap="round" stroke-linejoin="round"/>
</svg>
