<svg width="24" height="24" viewBox="0 0 24 24" fill="none" xmlns="http://www.w3.org/2000/svg">
<path d="M12.1398 7.61914H6.86977C5.00977 7.61914 4.58977 8.54914 4.35977 9.69914L3.50977 13.7491H15.5098L14.6598 9.69914C14.4098 8.54914 13.9998 7.61914 12.1398 7.61914Z" stroke="#333333" stroke-width="1.5" stroke-linecap="round" stroke-linejoin="round"/>
<path d="M3.50013 11.5H2.75013M16.2501 11.5H15.5001M5.00013 16.75H7.25013M11.7501 16.75H14.0001M18.7101 8.74C18.9901 8.09 18.8901 7.21 18.3701 6.44C17.8601 5.67 17.0801 5.24 16.3701 5.25M21.8201 9.73C22.2401 8.22 21.9401 6.37 20.8701 4.77C19.8001 3.17 18.2001 2.19 16.6401 2M16.9901 20.36C17.0701 21.24 16.3701 22 15.4701 22H14.0601C13.2501 22 13.1401 21.65 12.9901 21.23L12.8401 20.78C12.6301 20.17 12.4901 19.75 11.4101 19.75H7.57013C6.49013 19.75 6.33013 20.22 6.14013 20.78L5.99013 21.23C5.85013 21.66 5.74013 22 4.92013 22H3.51013C2.61013 22 1.90013 21.24 1.99013 20.36L2.41013 15.79C2.52013 14.66 2.73013 13.74 4.70013 13.74H14.2701C16.2401 13.74 16.4501 14.66 16.5601 15.79L16.9901 20.36Z" stroke="#333333" stroke-width="1.5" stroke-linecap="round" stroke-linejoin="round"/>
</svg>
