<svg width="22" height="22" viewBox="0 0 22 22" fill="none" xmlns="http://www.w3.org/2000/svg">
<path d="M18.0593 17.6704L15.9193 13.4004L13.7793 17.6704M14.1693 16.9104H17.6893" stroke="#777777" stroke-width="1.5" stroke-linecap="round" stroke-linejoin="round"/>
<path d="M8.01 4.85H3.95M5.97 4.17V4.85M15.92 21C15.2528 20.9999 14.5921 20.8683 13.9757 20.6129C13.3593 20.3574 12.7992 19.983 12.3275 19.5111C11.8558 19.0392 11.4816 18.479 11.2264 17.8625C10.9712 17.246 10.8399 16.5852 10.84 15.918C10.8401 15.2508 10.9717 14.5901 11.2272 13.9737C11.4826 13.3573 11.857 12.7972 12.3289 12.3255C12.8008 11.8538 13.361 11.4796 13.9775 11.2244C14.594 10.9692 15.2548 10.8379 15.922 10.838C17.2696 10.8383 18.5618 11.3738 19.5145 12.3269C20.4672 13.28 21.0023 14.5724 21.002 15.92C21.0017 17.2676 20.4662 18.5598 19.5131 19.5125C18.56 20.4652 17.2676 21.0003 15.92 21ZM4.02 1H7.94C10.01 1 11.01 2 10.96 4.02V7.94C11.01 10.01 10.01 11.01 7.94 10.96H4.02C2 11 1 10 1 7.93V4.01C1 2 2 1 4.02 1Z" stroke="#777777" stroke-width="1.5" stroke-linecap="round" stroke-linejoin="round"/>
<path d="M6.98945 4.83984C6.98945 6.58984 5.61945 8.00984 3.93945 8.00984" stroke="#777777" stroke-width="1.5" stroke-linecap="round" stroke-linejoin="round"/>
<path d="M8.01 8.01C7.28 8.01 6.62 7.62 6.16 7M1 14C1 17.87 4.13 21 8 21L6.95 19.25M21 8C21 4.13 17.87 1 14 1L15.05 2.75" stroke="#777777" stroke-width="1.5" stroke-linecap="round" stroke-linejoin="round"/>
</svg>
