<svg width="22" height="22" viewBox="0 0 22 22" fill="none" xmlns="http://www.w3.org/2000/svg">
<path d="M15 1H7C3 1 1 3 1 7V20C1 20.55 1.45 21 2 21H15C19 21 21 19 21 15V7C21 3 19 1 15 1Z" stroke="#777777" stroke-width="1.5" stroke-linecap="round" stroke-linejoin="round"/>
<path d="M11.9108 6.84015L6.72078 12.0302C6.52078 12.2302 6.33078 12.6202 6.29078 12.9002L6.01078 14.8802C5.91078 15.6002 6.41078 16.1002 7.13078 16.0002L9.11078 15.7202C9.39078 15.6802 9.78078 15.4902 9.98078 15.2902L15.1708 10.1002C16.0608 9.21015 16.4908 8.17015 15.1708 6.85015C13.8508 5.52015 12.8108 5.94015 11.9108 6.84015Z" stroke="#777777" stroke-width="1.5" stroke-miterlimit="10" stroke-linecap="round" stroke-linejoin="round"/>
<path d="M11.1699 7.58008C11.387 8.35526 11.8001 9.06147 12.3693 9.6307C12.9385 10.1999 13.6447 10.613 14.4199 10.8301" stroke="#777777" stroke-width="1.5" stroke-miterlimit="10" stroke-linecap="round" stroke-linejoin="round"/>
</svg>
